<svg xmlns="http://www.w3.org/2000/svg" xmlns:xlink="http://www.w3.org/1999/xlink" width="500" zoomAndPan="magnify" viewBox="0 0 375 374.999991" height="500" preserveAspectRatio="xMidYMid meet" version="1.0"><defs><clipPath id="b92fdd2bdc"><path d="M 48 82 L 326.933594 82 L 326.933594 276 L 48 276 Z M 48 82 " clip-rule="nonzero"/></clipPath><clipPath id="24a7fb1a9c"><path d="M 129 284 L 246 284 L 246 325.390625 L 129 325.390625 Z M 129 284 " clip-rule="nonzero"/></clipPath><clipPath id="88c9c30a11"><path d="M 126 49.390625 L 194 49.390625 L 194 117 L 126 117 Z M 126 49.390625 " clip-rule="nonzero"/></clipPath><clipPath id="ba45264a14"><path d="M 70.933594 246.242188 L 142 246.242188 L 142 265.910156 L 70.933594 265.910156 Z M 70.933594 246.242188 " clip-rule="nonzero"/></clipPath><clipPath id="1088d50279"><path d="M 80.769531 246.242188 L 132.167969 246.242188 C 134.777344 246.242188 137.277344 247.277344 139.121094 249.121094 C 140.964844 250.964844 142 253.46875 142 256.074219 C 142 258.683594 140.964844 261.183594 139.121094 263.027344 C 137.277344 264.871094 134.777344 265.910156 132.167969 265.910156 L 80.769531 265.910156 C 78.160156 265.910156 75.660156 264.871094 73.816406 263.027344 C 71.972656 261.183594 70.933594 258.683594 70.933594 256.074219 C 70.933594 253.46875 71.972656 250.964844 73.816406 249.121094 C 75.660156 247.277344 78.160156 246.242188 80.769531 246.242188 Z M 80.769531 246.242188 " clip-rule="nonzero"/></clipPath><clipPath id="e6770c4162"><path d="M 209.921875 244.929688 L 298.820312 244.929688 L 298.820312 267.21875 L 209.921875 267.21875 Z M 209.921875 244.929688 " clip-rule="nonzero"/></clipPath><clipPath id="62dbda8b4e"><path d="M 221.066406 244.929688 L 287.675781 244.929688 C 290.628906 244.929688 293.464844 246.105469 295.554688 248.195312 C 297.644531 250.285156 298.820312 253.121094 298.820312 256.074219 C 298.820312 259.03125 297.644531 261.867188 295.554688 263.957031 C 293.464844 266.046875 290.628906 267.21875 287.675781 267.21875 L 221.066406 267.21875 C 218.109375 267.21875 215.277344 266.046875 213.1875 263.957031 C 211.09375 261.867188 209.921875 259.03125 209.921875 256.074219 C 209.921875 253.121094 211.09375 250.285156 213.1875 248.195312 C 215.277344 246.105469 218.109375 244.929688 221.066406 244.929688 Z M 221.066406 244.929688 " clip-rule="nonzero"/></clipPath></defs><g clip-path="url(#b92fdd2bdc)"><path fill="#8c52ff" d="M 319.753906 82.746094 L 279.375 82.746094 C 283.472656 87.132812 283.765625 94.15625 279.960938 98.835938 L 279.667969 99.421875 L 309.804688 99.421875 L 309.804688 240.453125 L 65.195312 240.453125 L 65.195312 99.421875 L 119.324219 99.421875 L 117.277344 93.863281 C 116.105469 90.058594 116.691406 85.964844 119.03125 82.746094 L 55.246094 82.746094 C 51.441406 82.746094 48.515625 85.671875 48.515625 89.472656 L 48.515625 268.835938 C 48.515625 272.640625 51.441406 275.566406 55.246094 275.566406 L 319.753906 275.566406 C 323.558594 275.566406 326.484375 272.640625 326.484375 268.835938 L 326.484375 89.472656 C 326.484375 85.671875 323.558594 82.746094 319.753906 82.746094 Z M 187.5 266.496094 C 182.816406 266.496094 179.015625 262.691406 179.015625 258.011719 C 179.015625 253.328125 182.816406 249.523438 187.5 249.523438 C 192.179688 249.523438 195.984375 253.328125 195.984375 258.011719 C 195.984375 262.398438 192.179688 266.496094 187.5 266.496094 Z M 187.5 266.496094 " fill-opacity="1" fill-rule="nonzero"/></g><g clip-path="url(#24a7fb1a9c)"><path fill="#8c52ff" d="M 245.140625 316.53125 L 245.140625 322.964844 C 245.140625 324.429688 243.96875 325.601562 242.507812 325.601562 L 132.492188 325.601562 C 131.027344 325.601562 129.859375 324.429688 129.859375 322.964844 L 129.859375 316.53125 C 129.859375 315.066406 131.027344 313.894531 132.492188 313.894531 L 152.09375 313.894531 L 157.363281 284.34375 L 217.929688 284.34375 L 223.195312 313.894531 L 242.800781 313.894531 C 243.96875 313.894531 245.140625 315.066406 245.140625 316.53125 Z M 245.140625 316.53125 " fill-opacity="1" fill-rule="nonzero"/></g><path fill="#8c52ff" d="M 279.667969 111.125 L 272.644531 110.25 C 270.011719 109.957031 267.671875 108.199219 266.5 105.566406 C 265.621094 102.933594 265.914062 100.300781 267.378906 97.960938 L 271.765625 92.402344 C 272.351562 91.523438 272.351562 90.351562 271.476562 89.472656 L 264.160156 82.160156 C 263.28125 81.28125 262.113281 81.28125 261.234375 81.867188 L 255.675781 86.257812 C 253.625 88.011719 250.699219 88.304688 248.066406 87.132812 C 245.433594 86.257812 243.679688 83.914062 243.386719 81.28125 L 243.09375 74.550781 C 243.09375 73.382812 241.921875 72.503906 241.042969 72.503906 L 230.511719 72.503906 C 229.339844 72.503906 228.464844 73.382812 228.464844 74.550781 L 227.585938 81.574219 C 227.292969 84.207031 225.535156 86.546875 222.902344 87.425781 C 220.269531 88.597656 217.636719 88.304688 215.296875 86.546875 L 209.738281 82.160156 C 208.859375 81.574219 207.6875 81.574219 206.8125 82.453125 L 199.496094 89.765625 C 198.617188 90.644531 198.617188 91.816406 199.203125 92.691406 L 203.59375 98.253906 C 205.347656 100.300781 205.640625 103.226562 204.46875 105.859375 C 203.300781 108.492188 201.25 110.25 198.324219 110.542969 L 191.304688 111.417969 C 190.132812 111.417969 189.253906 112.589844 189.253906 113.46875 L 189.253906 124 C 189.253906 125.171875 190.132812 126.050781 191.304688 126.050781 L 198.324219 126.925781 C 200.960938 127.21875 203.300781 128.976562 204.46875 131.609375 C 205.640625 134.242188 205.054688 136.875 203.59375 139.214844 L 199.203125 144.484375 C 198.617188 145.359375 198.617188 146.53125 199.496094 147.410156 L 206.8125 154.722656 C 207.6875 155.601562 208.859375 155.601562 209.738281 155.015625 L 215.296875 150.628906 C 217.34375 148.871094 220.269531 148.578125 222.902344 149.75 C 225.535156 150.628906 227.292969 152.96875 227.585938 155.894531 L 228.464844 162.917969 C 228.464844 164.085938 229.632812 164.964844 230.511719 164.964844 L 241.042969 164.964844 C 242.214844 164.964844 243.09375 164.085938 243.09375 162.917969 L 243.96875 155.894531 C 244.261719 153.261719 246.019531 150.917969 248.652344 149.75 C 251.285156 148.578125 253.917969 148.871094 256.257812 150.628906 L 261.820312 155.015625 C 262.695312 155.601562 263.867188 155.601562 264.746094 154.722656 L 272.058594 147.410156 C 272.9375 146.53125 272.9375 145.359375 272.351562 144.484375 L 267.964844 138.921875 C 266.207031 136.875 265.914062 133.949219 267.085938 131.316406 C 268.257812 128.683594 270.304688 126.925781 273.230469 126.632812 L 280.253906 125.757812 C 281.421875 125.464844 282.300781 124.585938 282.300781 123.707031 L 282.300781 113.175781 C 281.714844 112.003906 280.835938 111.125 279.667969 111.125 Z M 235.484375 138.628906 C 224.367188 138.628906 215.296875 129.558594 215.296875 118.441406 C 215.296875 107.324219 224.367188 98.253906 235.484375 98.253906 C 246.605469 98.253906 255.675781 107.324219 255.675781 118.441406 C 255.675781 129.558594 246.605469 138.628906 235.484375 138.628906 Z M 235.484375 138.628906 " fill-opacity="1" fill-rule="nonzero"/><path fill="#8c52ff" d="M 235.484375 106.445312 C 228.753906 106.445312 223.488281 111.710938 223.488281 118.441406 C 223.488281 125.171875 228.753906 130.4375 235.484375 130.4375 C 242.214844 130.4375 247.480469 125.171875 247.480469 118.441406 C 247.480469 111.710938 242.214844 106.445312 235.484375 106.445312 Z M 235.484375 106.445312 " fill-opacity="1" fill-rule="nonzero"/><path fill="#8c52ff" d="M 200.375 160.28125 L 193.351562 159.40625 C 190.71875 159.113281 188.378906 157.355469 187.207031 154.722656 C 186.328125 152.089844 186.621094 149.457031 188.085938 147.117188 L 192.472656 141.558594 C 193.058594 140.679688 193.058594 139.507812 192.179688 138.628906 L 184.867188 131.316406 C 183.988281 130.4375 182.816406 130.4375 181.941406 131.023438 L 176.382812 135.414062 C 174.332031 137.167969 171.40625 137.460938 168.773438 136.289062 C 166.140625 135.414062 164.382812 133.070312 164.09375 130.4375 L 163.214844 123.414062 C 163.214844 122.246094 162.042969 121.367188 161.164062 121.367188 L 150.632812 121.367188 C 149.460938 121.367188 148.585938 122.246094 148.585938 123.414062 L 147.707031 130.4375 C 147.414062 133.070312 145.660156 135.414062 143.023438 136.289062 C 140.390625 137.460938 137.757812 137.167969 135.417969 135.414062 L 129.859375 131.023438 C 128.980469 130.4375 127.808594 130.4375 126.933594 131.316406 L 120.203125 138.921875 C 119.324219 139.800781 119.324219 140.972656 119.910156 141.847656 L 124.296875 147.410156 C 126.054688 149.457031 126.347656 152.382812 125.175781 155.015625 C 124.007812 157.648438 121.957031 159.40625 119.03125 159.699219 L 112.007812 160.574219 C 110.839844 160.574219 109.960938 161.746094 109.960938 162.625 L 109.960938 173.15625 C 109.960938 174.328125 110.839844 175.207031 112.007812 175.207031 L 119.03125 176.082031 C 121.664062 176.375 124.007812 178.132812 125.175781 180.765625 C 126.347656 183.398438 125.761719 186.03125 124.296875 188.371094 L 120.203125 193.640625 C 119.617188 194.515625 119.617188 195.6875 120.496094 196.566406 L 127.808594 203.878906 C 128.6875 204.757812 129.859375 204.757812 130.734375 204.171875 L 136.296875 199.785156 C 138.34375 198.027344 141.269531 197.734375 143.902344 198.90625 C 146.535156 199.785156 148.292969 202.125 148.585938 205.050781 L 149.460938 212.074219 C 149.460938 213.242188 150.632812 214.121094 151.511719 214.121094 L 162.042969 214.121094 C 163.214844 214.121094 164.09375 213.242188 164.09375 212.074219 L 164.96875 205.050781 C 165.261719 202.417969 167.019531 200.074219 169.652344 198.90625 C 172.285156 197.734375 174.917969 198.027344 177.257812 199.785156 L 182.816406 204.171875 C 183.695312 204.757812 184.867188 204.757812 185.742188 203.878906 L 193.058594 196.566406 C 193.9375 195.6875 193.9375 194.515625 193.351562 193.640625 L 188.960938 188.078125 C 187.207031 186.03125 186.914062 183.105469 188.085938 180.472656 C 189.253906 177.839844 191.304688 176.082031 194.230469 175.789062 L 201.25 174.914062 C 202.421875 174.621094 203.300781 173.742188 203.300781 172.863281 L 203.300781 162.332031 C 202.421875 161.160156 201.542969 160.28125 200.375 160.28125 Z M 156.484375 187.785156 C 145.367188 187.785156 136.296875 178.714844 136.296875 167.597656 C 136.296875 156.480469 145.367188 147.410156 156.484375 147.410156 C 167.601562 147.410156 176.671875 156.480469 176.671875 167.597656 C 176.382812 178.714844 167.601562 187.785156 156.484375 187.785156 Z M 156.484375 187.785156 " fill-opacity="1" fill-rule="nonzero"/><path fill="#8c52ff" d="M 156.484375 155.601562 C 149.753906 155.601562 144.488281 160.867188 144.488281 167.597656 C 144.488281 174.328125 149.753906 179.59375 156.484375 179.59375 C 163.214844 179.59375 168.480469 174.328125 168.480469 167.597656 C 168.480469 160.867188 163.214844 155.601562 156.484375 155.601562 Z M 156.484375 155.601562 " fill-opacity="1" fill-rule="nonzero"/><g clip-path="url(#88c9c30a11)"><path fill="#8c52ff" d="M 191.597656 92.402344 L 187.207031 89.472656 C 185.453125 88.304688 184.574219 86.546875 184.867188 84.5 C 184.867188 82.453125 186.035156 80.695312 188.085938 79.820312 L 192.765625 77.476562 C 193.351562 77.183594 193.9375 76.308594 193.644531 75.429688 L 191.011719 68.113281 C 190.425781 67.824219 189.546875 67.238281 188.960938 67.53125 L 183.988281 68.699219 C 181.941406 69.285156 180.183594 68.40625 178.722656 66.945312 C 177.257812 65.480469 176.964844 63.433594 177.550781 61.386719 L 179.308594 56.410156 C 179.597656 55.535156 179.308594 54.65625 178.429688 54.363281 L 171.40625 50.851562 C 170.820312 50.558594 169.945312 50.851562 169.359375 51.4375 L 166.433594 55.824219 C 165.261719 57.582031 163.507812 58.460938 161.457031 58.167969 C 159.410156 58.167969 157.65625 56.996094 156.777344 55.242188 L 154.4375 50.558594 C 154.144531 49.679688 153.265625 49.390625 152.386719 49.679688 L 145.074219 52.316406 C 144.195312 52.609375 143.902344 53.484375 143.902344 54.070312 L 145.074219 59.042969 C 145.367188 61.09375 144.78125 62.847656 143.316406 64.3125 C 141.855469 65.773438 139.804688 66.066406 137.757812 65.480469 L 132.785156 63.726562 C 131.90625 63.433594 131.320312 63.726562 130.734375 64.605469 L 127.515625 71.332031 C 127.226562 72.210938 127.515625 72.796875 128.101562 73.382812 L 132.492188 76.308594 C 134.246094 77.476562 135.125 79.234375 134.832031 81.28125 C 134.832031 83.328125 133.660156 85.085938 131.90625 85.964844 L 127.226562 88.304688 C 126.347656 88.597656 126.054688 89.472656 126.347656 90.351562 L 128.6875 97.667969 C 128.980469 98.546875 129.859375 98.835938 130.441406 98.835938 L 135.710938 97.667969 C 137.757812 97.082031 139.515625 97.960938 140.976562 99.421875 C 142.441406 100.886719 142.730469 102.933594 142.148438 104.980469 L 140.390625 109.957031 C 140.097656 110.835938 140.390625 111.710938 141.269531 112.003906 L 148.292969 115.515625 C 148.875 115.808594 150.046875 115.515625 150.339844 114.929688 L 153.265625 110.542969 C 154.4375 108.785156 156.191406 107.90625 158.238281 108.199219 C 160.289062 108.199219 162.042969 109.371094 162.921875 111.125 L 165.261719 115.808594 C 165.554688 116.6875 166.433594 116.980469 167.308594 116.6875 L 174.625 114.050781 C 175.503906 113.761719 175.796875 112.882812 175.796875 112.296875 L 174.625 107.324219 C 174.039062 105.273438 174.917969 103.519531 176.382812 102.054688 C 177.84375 100.59375 179.890625 100.300781 181.941406 100.886719 L 186.914062 102.640625 C 187.792969 102.933594 188.378906 102.640625 188.960938 101.761719 L 192.179688 95.035156 C 192.472656 93.863281 192.179688 92.984375 191.597656 92.402344 Z M 153.558594 96.496094 C 146.242188 92.984375 143.316406 84.207031 146.828125 76.894531 C 150.339844 69.578125 159.117188 66.652344 166.433594 70.164062 C 173.746094 73.675781 176.671875 82.453125 173.164062 89.765625 C 169.652344 96.789062 160.875 100.007812 153.558594 96.496094 Z M 153.558594 96.496094 " fill-opacity="1" fill-rule="nonzero"/></g><path fill="#8c52ff" d="M 164.09375 75.136719 C 159.703125 73.089844 154.4375 74.84375 152.386719 79.234375 C 150.339844 83.621094 152.09375 88.890625 156.484375 90.9375 C 160.875 92.984375 166.140625 91.230469 168.1875 86.839844 C 170.238281 82.746094 168.480469 77.476562 164.09375 75.136719 Z M 164.09375 75.136719 " fill-opacity="1" fill-rule="nonzero"/><g clip-path="url(#ba45264a14)"><g clip-path="url(#1088d50279)"><path fill="#8c52ff" d="M 70.933594 246.242188 L 142 246.242188 L 142 265.910156 L 70.933594 265.910156 Z M 70.933594 246.242188 " fill-opacity="1" fill-rule="nonzero"/></g></g><g clip-path="url(#e6770c4162)"><g clip-path="url(#62dbda8b4e)"><path fill="#8c52ff" d="M 209.921875 244.929688 L 298.820312 244.929688 L 298.820312 267.21875 L 209.921875 267.21875 Z M 209.921875 244.929688 " fill-opacity="1" fill-rule="nonzero"/></g></g></svg>