<svg xmlns="http://www.w3.org/2000/svg" xmlns:xlink="http://www.w3.org/1999/xlink" width="500" zoomAndPan="magnify" viewBox="0 0 375 374.999991" height="500" preserveAspectRatio="xMidYMid meet" version="1.0"><defs><g/><radialGradient gradientTransform="matrix(1, 0, 0, 1, 0.0000045, 0)" gradientUnits="userSpaceOnUse" r="530.33023" cx="0" id="226ecc8919" cy="0" fx="0" fy="0"><stop stop-opacity="1" stop-color="rgb(0.100708%, 0.100708%, 0.100708%)" offset="0"/><stop stop-opacity="1" stop-color="rgb(0.302124%, 0.302124%, 0.302124%)" offset="0.00390625"/><stop stop-opacity="1" stop-color="rgb(0.505066%, 0.505066%, 0.505066%)" offset="0.0078125"/><stop stop-opacity="1" stop-color="rgb(0.706482%, 0.706482%, 0.706482%)" offset="0.0117188"/><stop stop-opacity="1" stop-color="rgb(0.909424%, 0.909424%, 0.909424%)" offset="0.015625"/><stop stop-opacity="1" stop-color="rgb(1.112366%, 1.112366%, 1.112366%)" offset="0.0195312"/><stop stop-opacity="1" stop-color="rgb(1.313782%, 1.313782%, 1.313782%)" offset="0.0234375"/><stop stop-opacity="1" stop-color="rgb(1.516724%, 1.516724%, 1.516724%)" offset="0.0273438"/><stop stop-opacity="1" stop-color="rgb(1.71814%, 1.71814%, 1.71814%)" offset="0.03125"/><stop stop-opacity="1" stop-color="rgb(1.921082%, 1.921082%, 1.921082%)" offset="0.0351562"/><stop stop-opacity="1" stop-color="rgb(2.124023%, 2.124023%, 2.124023%)" offset="0.0390625"/><stop stop-opacity="1" stop-color="rgb(2.325439%, 2.325439%, 2.325439%)" offset="0.0429688"/><stop stop-opacity="1" stop-color="rgb(2.528381%, 2.528381%, 2.528381%)" offset="0.046875"/><stop stop-opacity="1" stop-color="rgb(2.729797%, 2.729797%, 2.729797%)" offset="0.0507812"/><stop stop-opacity="1" stop-color="rgb(2.932739%, 2.932739%, 2.932739%)" offset="0.0546875"/><stop stop-opacity="1" stop-color="rgb(3.135681%, 3.135681%, 3.135681%)" offset="0.0585938"/><stop stop-opacity="1" stop-color="rgb(3.337097%, 3.337097%, 3.337097%)" offset="0.0625"/><stop stop-opacity="1" stop-color="rgb(3.540039%, 3.540039%, 3.540039%)" offset="0.0664062"/><stop stop-opacity="1" stop-color="rgb(3.741455%, 3.741455%, 3.741455%)" offset="0.0703125"/><stop stop-opacity="1" stop-color="rgb(3.944397%, 3.944397%, 3.944397%)" offset="0.0742188"/><stop stop-opacity="1" stop-color="rgb(4.147339%, 4.147339%, 4.147339%)" offset="0.078125"/><stop stop-opacity="1" stop-color="rgb(4.348755%, 4.348755%, 4.348755%)" offset="0.0820312"/><stop stop-opacity="1" stop-color="rgb(4.551697%, 4.551697%, 4.551697%)" offset="0.0859375"/><stop stop-opacity="1" stop-color="rgb(4.753113%, 4.753113%, 4.753113%)" offset="0.0898438"/><stop stop-opacity="1" stop-color="rgb(4.956055%, 4.956055%, 4.956055%)" offset="0.09375"/><stop stop-opacity="1" stop-color="rgb(5.158997%, 5.158997%, 5.158997%)" offset="0.0976562"/><stop stop-opacity="1" stop-color="rgb(5.360413%, 5.360413%, 5.360413%)" offset="0.101562"/><stop stop-opacity="1" stop-color="rgb(5.563354%, 5.563354%, 5.563354%)" offset="0.105469"/><stop stop-opacity="1" stop-color="rgb(5.766296%, 5.766296%, 5.766296%)" offset="0.109375"/><stop stop-opacity="1" stop-color="rgb(5.967712%, 5.967712%, 5.967712%)" offset="0.113281"/><stop stop-opacity="1" stop-color="rgb(6.170654%, 6.170654%, 6.170654%)" offset="0.117188"/><stop stop-opacity="1" stop-color="rgb(6.37207%, 6.37207%, 6.37207%)" offset="0.121094"/><stop stop-opacity="1" stop-color="rgb(6.575012%, 6.575012%, 6.575012%)" offset="0.125"/><stop stop-opacity="1" stop-color="rgb(6.777954%, 6.777954%, 6.777954%)" offset="0.128906"/><stop stop-opacity="1" stop-color="rgb(6.97937%, 6.97937%, 6.97937%)" offset="0.132812"/><stop stop-opacity="1" stop-color="rgb(7.182312%, 7.182312%, 7.182312%)" offset="0.136719"/><stop stop-opacity="1" stop-color="rgb(7.383728%, 7.383728%, 7.383728%)" offset="0.140625"/><stop stop-opacity="1" stop-color="rgb(7.58667%, 7.58667%, 7.58667%)" offset="0.144531"/><stop stop-opacity="1" stop-color="rgb(7.789612%, 7.789612%, 7.789612%)" offset="0.148438"/><stop stop-opacity="1" stop-color="rgb(7.991028%, 7.991028%, 7.991028%)" offset="0.152344"/><stop stop-opacity="1" stop-color="rgb(8.19397%, 8.19397%, 8.19397%)" offset="0.15625"/><stop stop-opacity="1" stop-color="rgb(8.395386%, 8.395386%, 8.395386%)" offset="0.160156"/><stop stop-opacity="1" stop-color="rgb(8.598328%, 8.598328%, 8.598328%)" offset="0.164062"/><stop stop-opacity="1" stop-color="rgb(8.80127%, 8.80127%, 8.80127%)" offset="0.167969"/><stop stop-opacity="1" stop-color="rgb(9.002686%, 9.002686%, 9.002686%)" offset="0.171875"/><stop stop-opacity="1" stop-color="rgb(9.205627%, 9.205627%, 9.205627%)" offset="0.175781"/><stop stop-opacity="1" stop-color="rgb(9.407043%, 9.407043%, 9.407043%)" offset="0.179688"/><stop stop-opacity="1" stop-color="rgb(9.609985%, 9.609985%, 9.609985%)" offset="0.183594"/><stop stop-opacity="1" stop-color="rgb(9.812927%, 9.812927%, 9.812927%)" offset="0.1875"/><stop stop-opacity="1" stop-color="rgb(10.014343%, 10.014343%, 10.014343%)" offset="0.191406"/><stop stop-opacity="1" stop-color="rgb(10.217285%, 10.217285%, 10.217285%)" offset="0.195312"/><stop stop-opacity="1" stop-color="rgb(10.420227%, 10.420227%, 10.420227%)" offset="0.199219"/><stop stop-opacity="1" stop-color="rgb(10.621643%, 10.621643%, 10.621643%)" offset="0.203125"/><stop stop-opacity="1" stop-color="rgb(10.824585%, 10.824585%, 10.824585%)" offset="0.207031"/><stop stop-opacity="1" stop-color="rgb(11.026001%, 11.026001%, 11.026001%)" offset="0.210938"/><stop stop-opacity="1" stop-color="rgb(11.228943%, 11.228943%, 11.228943%)" offset="0.214844"/><stop stop-opacity="1" stop-color="rgb(11.431885%, 11.431885%, 11.431885%)" offset="0.21875"/><stop stop-opacity="1" stop-color="rgb(11.633301%, 11.633301%, 11.633301%)" offset="0.222656"/><stop stop-opacity="1" stop-color="rgb(11.836243%, 11.836243%, 11.836243%)" offset="0.226562"/><stop stop-opacity="1" stop-color="rgb(12.037659%, 12.037659%, 12.037659%)" offset="0.230469"/><stop stop-opacity="1" stop-color="rgb(12.240601%, 12.240601%, 12.240601%)" offset="0.234375"/><stop stop-opacity="1" stop-color="rgb(12.443542%, 12.443542%, 12.443542%)" offset="0.238281"/><stop stop-opacity="1" stop-color="rgb(12.644958%, 12.644958%, 12.644958%)" offset="0.242188"/><stop stop-opacity="1" stop-color="rgb(12.8479%, 12.8479%, 12.8479%)" offset="0.246094"/><stop stop-opacity="1" stop-color="rgb(13.049316%, 13.049316%, 13.049316%)" offset="0.25"/><stop stop-opacity="1" stop-color="rgb(13.252258%, 13.252258%, 13.252258%)" offset="0.253906"/><stop stop-opacity="1" stop-color="rgb(13.4552%, 13.4552%, 13.4552%)" offset="0.257812"/><stop stop-opacity="1" stop-color="rgb(13.656616%, 13.656616%, 13.656616%)" offset="0.261719"/><stop stop-opacity="1" stop-color="rgb(13.859558%, 13.859558%, 13.859558%)" offset="0.265625"/><stop stop-opacity="1" stop-color="rgb(14.060974%, 14.060974%, 14.060974%)" offset="0.269531"/><stop stop-opacity="1" stop-color="rgb(14.263916%, 14.263916%, 14.263916%)" offset="0.273438"/><stop stop-opacity="1" stop-color="rgb(14.466858%, 14.466858%, 14.466858%)" offset="0.277344"/><stop stop-opacity="1" stop-color="rgb(14.668274%, 14.668274%, 14.668274%)" offset="0.28125"/><stop stop-opacity="1" stop-color="rgb(14.871216%, 14.871216%, 14.871216%)" offset="0.285156"/><stop stop-opacity="1" stop-color="rgb(15.072632%, 15.072632%, 15.072632%)" offset="0.289062"/><stop stop-opacity="1" stop-color="rgb(15.275574%, 15.275574%, 15.275574%)" offset="0.292969"/><stop stop-opacity="1" stop-color="rgb(15.478516%, 15.478516%, 15.478516%)" offset="0.296875"/><stop stop-opacity="1" stop-color="rgb(15.679932%, 15.679932%, 15.679932%)" offset="0.300781"/><stop stop-opacity="1" stop-color="rgb(15.882874%, 15.882874%, 15.882874%)" offset="0.304688"/><stop stop-opacity="1" stop-color="rgb(16.085815%, 16.085815%, 16.085815%)" offset="0.308594"/><stop stop-opacity="1" stop-color="rgb(16.287231%, 16.287231%, 16.287231%)" offset="0.3125"/><stop stop-opacity="1" stop-color="rgb(16.490173%, 16.490173%, 16.490173%)" offset="0.316406"/><stop stop-opacity="1" stop-color="rgb(16.691589%, 16.691589%, 16.691589%)" offset="0.320312"/><stop stop-opacity="1" stop-color="rgb(16.894531%, 16.894531%, 16.894531%)" offset="0.324219"/><stop stop-opacity="1" stop-color="rgb(17.097473%, 17.097473%, 17.097473%)" offset="0.328125"/><stop stop-opacity="1" stop-color="rgb(17.298889%, 17.298889%, 17.298889%)" offset="0.332031"/><stop stop-opacity="1" stop-color="rgb(17.501831%, 17.501831%, 17.501831%)" offset="0.335938"/><stop stop-opacity="1" stop-color="rgb(17.703247%, 17.703247%, 17.703247%)" offset="0.339844"/><stop stop-opacity="1" stop-color="rgb(17.906189%, 17.906189%, 17.906189%)" offset="0.34375"/><stop stop-opacity="1" stop-color="rgb(18.109131%, 18.109131%, 18.109131%)" offset="0.347656"/><stop stop-opacity="1" stop-color="rgb(18.310547%, 18.310547%, 18.310547%)" offset="0.351562"/><stop stop-opacity="1" stop-color="rgb(18.513489%, 18.513489%, 18.513489%)" offset="0.355469"/><stop stop-opacity="1" stop-color="rgb(18.714905%, 18.714905%, 18.714905%)" offset="0.359375"/><stop stop-opacity="1" stop-color="rgb(18.917847%, 18.917847%, 18.917847%)" offset="0.363281"/><stop stop-opacity="1" stop-color="rgb(19.120789%, 19.120789%, 19.120789%)" offset="0.367188"/><stop stop-opacity="1" stop-color="rgb(19.322205%, 19.322205%, 19.322205%)" offset="0.371094"/><stop stop-opacity="1" stop-color="rgb(19.525146%, 19.525146%, 19.525146%)" offset="0.375"/><stop stop-opacity="1" stop-color="rgb(19.726562%, 19.726562%, 19.726562%)" offset="0.378906"/><stop stop-opacity="1" stop-color="rgb(19.929504%, 19.929504%, 19.929504%)" offset="0.382812"/><stop stop-opacity="1" stop-color="rgb(20.132446%, 20.132446%, 20.132446%)" offset="0.386719"/><stop stop-opacity="1" stop-color="rgb(20.333862%, 20.333862%, 20.333862%)" offset="0.390625"/><stop stop-opacity="1" stop-color="rgb(20.536804%, 20.536804%, 20.536804%)" offset="0.394531"/><stop stop-opacity="1" stop-color="rgb(20.739746%, 20.739746%, 20.739746%)" offset="0.398438"/><stop stop-opacity="1" stop-color="rgb(20.941162%, 20.941162%, 20.941162%)" offset="0.402344"/><stop stop-opacity="1" stop-color="rgb(21.144104%, 21.144104%, 21.144104%)" offset="0.40625"/><stop stop-opacity="1" stop-color="rgb(21.34552%, 21.34552%, 21.34552%)" offset="0.410156"/><stop stop-opacity="1" stop-color="rgb(21.548462%, 21.548462%, 21.548462%)" offset="0.414062"/><stop stop-opacity="1" stop-color="rgb(21.751404%, 21.751404%, 21.751404%)" offset="0.417969"/><stop stop-opacity="1" stop-color="rgb(21.95282%, 21.95282%, 21.95282%)" offset="0.421875"/><stop stop-opacity="1" stop-color="rgb(22.155762%, 22.155762%, 22.155762%)" offset="0.425781"/><stop stop-opacity="1" stop-color="rgb(22.357178%, 22.357178%, 22.357178%)" offset="0.429688"/><stop stop-opacity="1" stop-color="rgb(22.56012%, 22.56012%, 22.56012%)" offset="0.433594"/><stop stop-opacity="1" stop-color="rgb(22.763062%, 22.763062%, 22.763062%)" offset="0.4375"/><stop stop-opacity="1" stop-color="rgb(22.964478%, 22.964478%, 22.964478%)" offset="0.441406"/><stop stop-opacity="1" stop-color="rgb(23.167419%, 23.167419%, 23.167419%)" offset="0.445312"/><stop stop-opacity="1" stop-color="rgb(23.368835%, 23.368835%, 23.368835%)" offset="0.449219"/><stop stop-opacity="1" stop-color="rgb(23.571777%, 23.571777%, 23.571777%)" offset="0.453125"/><stop stop-opacity="1" stop-color="rgb(23.774719%, 23.774719%, 23.774719%)" offset="0.457031"/><stop stop-opacity="1" stop-color="rgb(23.976135%, 23.976135%, 23.976135%)" offset="0.460938"/><stop stop-opacity="1" stop-color="rgb(24.179077%, 24.179077%, 24.179077%)" offset="0.464844"/><stop stop-opacity="1" stop-color="rgb(24.380493%, 24.380493%, 24.380493%)" offset="0.46875"/><stop stop-opacity="1" stop-color="rgb(24.583435%, 24.583435%, 24.583435%)" offset="0.472656"/><stop stop-opacity="1" stop-color="rgb(24.786377%, 24.786377%, 24.786377%)" offset="0.476562"/><stop stop-opacity="1" stop-color="rgb(24.987793%, 24.987793%, 24.987793%)" offset="0.480469"/><stop stop-opacity="1" stop-color="rgb(25.190735%, 25.190735%, 25.190735%)" offset="0.484375"/><stop stop-opacity="1" stop-color="rgb(25.393677%, 25.393677%, 25.393677%)" offset="0.488281"/><stop stop-opacity="1" stop-color="rgb(25.595093%, 25.595093%, 25.595093%)" offset="0.492188"/><stop stop-opacity="1" stop-color="rgb(25.622559%, 25.622559%, 25.567627%)" offset="0.496094"/><stop stop-opacity="1" stop-color="rgb(25.491333%, 25.491333%, 25.363159%)" offset="0.511719"/><stop stop-opacity="1" stop-color="rgb(25.375366%, 25.375366%, 25.210571%)" offset="0.515625"/><stop stop-opacity="1" stop-color="rgb(25.259399%, 25.259399%, 25.056458%)" offset="0.519531"/><stop stop-opacity="1" stop-color="rgb(25.141907%, 25.141907%, 24.90387%)" offset="0.523438"/><stop stop-opacity="1" stop-color="rgb(25.02594%, 25.02594%, 24.751282%)" offset="0.527344"/><stop stop-opacity="1" stop-color="rgb(24.909973%, 24.909973%, 24.597168%)" offset="0.53125"/><stop stop-opacity="1" stop-color="rgb(24.79248%, 24.79248%, 24.44458%)" offset="0.535156"/><stop stop-opacity="1" stop-color="rgb(24.676514%, 24.676514%, 24.290466%)" offset="0.539062"/><stop stop-opacity="1" stop-color="rgb(24.560547%, 24.560547%, 24.137878%)" offset="0.542969"/><stop stop-opacity="1" stop-color="rgb(24.44458%, 24.44458%, 23.985291%)" offset="0.546875"/><stop stop-opacity="1" stop-color="rgb(24.327087%, 24.327087%, 23.831177%)" offset="0.550781"/><stop stop-opacity="1" stop-color="rgb(24.211121%, 24.211121%, 23.678589%)" offset="0.554688"/><stop stop-opacity="1" stop-color="rgb(24.095154%, 24.095154%, 23.526001%)" offset="0.558594"/><stop stop-opacity="1" stop-color="rgb(23.977661%, 23.977661%, 23.371887%)" offset="0.5625"/><stop stop-opacity="1" stop-color="rgb(23.861694%, 23.861694%, 23.219299%)" offset="0.566406"/><stop stop-opacity="1" stop-color="rgb(23.745728%, 23.745728%, 23.066711%)" offset="0.570312"/><stop stop-opacity="1" stop-color="rgb(23.629761%, 23.629761%, 22.912598%)" offset="0.574219"/><stop stop-opacity="1" stop-color="rgb(23.512268%, 23.512268%, 22.76001%)" offset="0.578125"/><stop stop-opacity="1" stop-color="rgb(23.396301%, 23.396301%, 22.607422%)" offset="0.582031"/><stop stop-opacity="1" stop-color="rgb(23.280334%, 23.280334%, 22.453308%)" offset="0.585938"/><stop stop-opacity="1" stop-color="rgb(23.162842%, 23.162842%, 22.30072%)" offset="0.589844"/><stop stop-opacity="1" stop-color="rgb(23.046875%, 23.046875%, 22.148132%)" offset="0.59375"/><stop stop-opacity="1" stop-color="rgb(22.930908%, 22.930908%, 21.994019%)" offset="0.597656"/><stop stop-opacity="1" stop-color="rgb(22.814941%, 22.814941%, 21.841431%)" offset="0.601562"/><stop stop-opacity="1" stop-color="rgb(22.697449%, 22.697449%, 21.687317%)" offset="0.605469"/><stop stop-opacity="1" stop-color="rgb(22.581482%, 22.581482%, 21.534729%)" offset="0.609375"/><stop stop-opacity="1" stop-color="rgb(22.465515%, 22.465515%, 21.382141%)" offset="0.613281"/><stop stop-opacity="1" stop-color="rgb(22.348022%, 22.348022%, 21.228027%)" offset="0.617188"/><stop stop-opacity="1" stop-color="rgb(22.232056%, 22.232056%, 21.075439%)" offset="0.621094"/><stop stop-opacity="1" stop-color="rgb(22.116089%, 22.116089%, 20.922852%)" offset="0.625"/><stop stop-opacity="1" stop-color="rgb(21.940613%, 21.940613%, 20.692444%)" offset="0.628906"/><stop stop-opacity="1" stop-color="rgb(21.708679%, 21.708679%, 20.385742%)" offset="0.636719"/><stop stop-opacity="1" stop-color="rgb(21.47522%, 21.47522%, 20.080566%)" offset="0.644531"/><stop stop-opacity="1" stop-color="rgb(21.243286%, 21.243286%, 19.773865%)" offset="0.652344"/><stop stop-opacity="1" stop-color="rgb(21.009827%, 21.009827%, 19.467163%)" offset="0.660156"/><stop stop-opacity="1" stop-color="rgb(20.776367%, 20.776367%, 19.160461%)" offset="0.667969"/><stop stop-opacity="1" stop-color="rgb(20.544434%, 20.544434%, 18.855286%)" offset="0.675781"/><stop stop-opacity="1" stop-color="rgb(20.310974%, 20.310974%, 18.548584%)" offset="0.683594"/><stop stop-opacity="1" stop-color="rgb(20.079041%, 20.079041%, 18.241882%)" offset="0.691406"/><stop stop-opacity="1" stop-color="rgb(19.845581%, 19.845581%, 17.936707%)" offset="0.699219"/><stop stop-opacity="1" stop-color="rgb(19.612122%, 19.612122%, 17.630005%)" offset="0.707031"/><stop stop-opacity="1" stop-color="rgb(19.380188%, 19.380188%, 17.323303%)" offset="0.714844"/><stop stop-opacity="1" stop-color="rgb(19.146729%, 19.146729%, 17.018127%)" offset="0.722656"/><stop stop-opacity="1" stop-color="rgb(18.914795%, 18.914795%, 16.711426%)" offset="0.730469"/><stop stop-opacity="1" stop-color="rgb(18.681335%, 18.681335%, 16.404724%)" offset="0.738281"/><stop stop-opacity="1" stop-color="rgb(18.449402%, 18.449402%, 16.098022%)" offset="0.746094"/><stop stop-opacity="1" stop-color="rgb(18.273926%, 18.273926%, 15.869141%)" offset="0.753906"/><stop stop-opacity="1" stop-color="rgb(18.157959%, 18.157959%, 15.716553%)" offset="0.757812"/><stop stop-opacity="1" stop-color="rgb(18.041992%, 18.041992%, 15.562439%)" offset="0.761719"/><stop stop-opacity="1" stop-color="rgb(17.9245%, 17.9245%, 15.409851%)" offset="0.765625"/><stop stop-opacity="1" stop-color="rgb(17.808533%, 17.808533%, 15.257263%)" offset="0.769531"/><stop stop-opacity="1" stop-color="rgb(17.692566%, 17.692566%, 15.103149%)" offset="0.773438"/><stop stop-opacity="1" stop-color="rgb(17.576599%, 17.576599%, 14.950562%)" offset="0.777344"/><stop stop-opacity="1" stop-color="rgb(17.459106%, 17.459106%, 14.797974%)" offset="0.78125"/><stop stop-opacity="1" stop-color="rgb(17.34314%, 17.34314%, 14.64386%)" offset="0.785156"/><stop stop-opacity="1" stop-color="rgb(17.227173%, 17.227173%, 14.491272%)" offset="0.789062"/><stop stop-opacity="1" stop-color="rgb(17.10968%, 17.10968%, 14.338684%)" offset="0.792969"/><stop stop-opacity="1" stop-color="rgb(16.993713%, 16.993713%, 14.18457%)" offset="0.796875"/><stop stop-opacity="1" stop-color="rgb(16.877747%, 16.877747%, 14.031982%)" offset="0.800781"/><stop stop-opacity="1" stop-color="rgb(16.76178%, 16.76178%, 13.879395%)" offset="0.804688"/><stop stop-opacity="1" stop-color="rgb(16.644287%, 16.644287%, 13.725281%)" offset="0.808594"/><stop stop-opacity="1" stop-color="rgb(16.52832%, 16.52832%, 13.572693%)" offset="0.8125"/><stop stop-opacity="1" stop-color="rgb(16.352844%, 16.352844%, 13.342285%)" offset="0.816406"/><stop stop-opacity="1" stop-color="rgb(16.120911%, 16.120911%, 13.035583%)" offset="0.824219"/><stop stop-opacity="1" stop-color="rgb(15.887451%, 15.887451%, 12.730408%)" offset="0.832031"/><stop stop-opacity="1" stop-color="rgb(15.655518%, 15.655518%, 12.423706%)" offset="0.839844"/><stop stop-opacity="1" stop-color="rgb(15.422058%, 15.422058%, 12.117004%)" offset="0.847656"/><stop stop-opacity="1" stop-color="rgb(15.190125%, 15.190125%, 11.811829%)" offset="0.855469"/><stop stop-opacity="1" stop-color="rgb(14.956665%, 14.956665%, 11.505127%)" offset="0.863281"/><stop stop-opacity="1" stop-color="rgb(14.723206%, 14.723206%, 11.198425%)" offset="0.871094"/><stop stop-opacity="1" stop-color="rgb(14.549255%, 14.549255%, 10.969543%)" offset="0.878906"/><stop stop-opacity="1" stop-color="rgb(14.433289%, 14.433289%, 10.81543%)" offset="0.882812"/><stop stop-opacity="1" stop-color="rgb(14.317322%, 14.317322%, 10.662842%)" offset="0.886719"/><stop stop-opacity="1" stop-color="rgb(14.199829%, 14.199829%, 10.510254%)" offset="0.890625"/><stop stop-opacity="1" stop-color="rgb(14.083862%, 14.083862%, 10.35614%)" offset="0.894531"/><stop stop-opacity="1" stop-color="rgb(13.967896%, 13.967896%, 10.203552%)" offset="0.898438"/><stop stop-opacity="1" stop-color="rgb(13.850403%, 13.850403%, 10.050964%)" offset="0.902344"/><stop stop-opacity="1" stop-color="rgb(13.734436%, 13.734436%, 9.896851%)" offset="0.90625"/><stop stop-opacity="1" stop-color="rgb(13.560486%, 13.560486%, 9.667969%)" offset="0.910156"/><stop stop-opacity="1" stop-color="rgb(13.327026%, 13.327026%, 9.361267%)" offset="0.917969"/><stop stop-opacity="1" stop-color="rgb(13.093567%, 13.093567%, 9.054565%)" offset="0.925781"/><stop stop-opacity="1" stop-color="rgb(12.861633%, 12.861633%, 8.74939%)" offset="0.933594"/><stop stop-opacity="1" stop-color="rgb(12.686157%, 12.686157%, 8.518982%)" offset="0.941406"/><stop stop-opacity="1" stop-color="rgb(12.57019%, 12.57019%, 8.366394%)" offset="0.945312"/><stop stop-opacity="1" stop-color="rgb(12.454224%, 12.454224%, 8.21228%)" offset="0.949219"/><stop stop-opacity="1" stop-color="rgb(12.338257%, 12.338257%, 8.059692%)" offset="0.953125"/><stop stop-opacity="1" stop-color="rgb(12.162781%, 12.162781%, 7.829285%)" offset="0.957031"/><stop stop-opacity="1" stop-color="rgb(11.929321%, 11.929321%, 7.524109%)" offset="0.964844"/><stop stop-opacity="1" stop-color="rgb(11.755371%, 11.755371%, 7.293701%)" offset="0.972656"/><stop stop-opacity="1" stop-color="rgb(11.639404%, 11.639404%, 7.141113%)" offset="0.976562"/><stop stop-opacity="1" stop-color="rgb(11.463928%, 11.463928%, 6.910706%)" offset="0.980469"/><stop stop-opacity="1" stop-color="rgb(11.289978%, 11.289978%, 6.681824%)" offset="0.988281"/><stop stop-opacity="1" stop-color="rgb(11.114502%, 11.114502%, 6.451416%)" offset="0.992188"/><stop stop-opacity="1" stop-color="rgb(10.998535%, 10.998535%, 6.298828%)" offset="1"/></radialGradient><clipPath id="6006271765"><path d="M 68.375 68.714844 L 298.625 68.714844 L 298.625 219 L 68.375 219 Z M 68.375 68.714844 " clip-rule="nonzero"/></clipPath><clipPath id="725f009388"><path d="M 138 223 L 229 223 L 229 253.214844 L 138 253.214844 Z M 138 223 " clip-rule="nonzero"/></clipPath><clipPath id="20a40f6f7e"><path d="M 93 69 L 298.625 69 L 298.625 197 L 93 197 Z M 93 69 " clip-rule="nonzero"/></clipPath></defs><rect x="-37.5" width="450" fill="#ffffff" y="-37.499999" height="449.999989" fill-opacity="1"/><rect x="-37.5" fill="url(#226ecc8919)" width="450" y="-37.499999" height="449.999989"/><g clip-path="url(#6006271765)"><path fill="#ffffff" d="M 83.359375 81.863281 C 82.40625 81.863281 81.582031 82.6875 81.582031 83.625 L 81.582031 203.421875 C 81.582031 204.375 82.40625 205.183594 83.359375 205.183594 L 283.542969 205.183594 C 284.496094 205.183594 285.304688 204.363281 285.304688 203.421875 L 285.304688 132.980469 L 120.832031 191.050781 L 298.441406 105.566406 L 298.441406 204.652344 C 298.441406 212.1875 292.261719 218.347656 284.742188 218.347656 L 82.144531 218.347656 C 74.609375 218.347656 68.445312 212.1875 68.445312 204.652344 L 68.445312 82.414062 C 68.445312 74.878906 74.609375 68.714844 82.144531 68.714844 L 260.808594 68.714844 L 136.96875 156.984375 L 216.335938 81.863281 Z M 83.359375 81.863281 " fill-opacity="1" fill-rule="evenodd"/></g><g clip-path="url(#725f009388)"><path fill="#ffffff" d="M 167.585938 223.980469 L 165.480469 240.132812 L 148.996094 240.132812 C 141.820312 240.132812 138.441406 245.949219 138.441406 253.109375 L 228.472656 253.109375 C 228.472656 245.933594 225.097656 240.132812 217.921875 240.132812 L 201.4375 240.132812 L 199.328125 223.980469 L 167.574219 223.980469 Z M 167.585938 223.980469 " fill-opacity="1" fill-rule="evenodd"/></g><g clip-path="url(#20a40f6f7e)"><path fill="#ffffff" d="M 93.289062 196.683594 L 280.527344 69.132812 L 298.46875 69.132812 L 298.46875 89.113281 Z M 93.289062 196.683594 " fill-opacity="1" fill-rule="evenodd"/></g><g fill="#ffffff" fill-opacity="1"><g transform="translate(17.259941, 296.5569)"><g><path d="M 16.375 0.53125 L 13.921875 0.40625 L 10.453125 -0.609375 L 9.671875 -0.9375 L 6.90625 -2.40625 L 6.375 -3.015625 L 5.21875 -4.125 L 3.3125 -6.734375 L 2.90625 -7.46875 L 2.65625 -8.328125 L 2.046875 -9.71875 L 1.59375 -12.296875 L 1.75 -17.03125 L 2.078125 -18.78125 L 2.859375 -21.03125 L 3.21875 -21.71875 L 4.609375 -23.765625 L 5.71875 -24.984375 L 7.015625 -25.890625 L 7.59375 -26.375 L 9.671875 -27.6875 L 11.234375 -28.09375 L 11.96875 -28.421875 L 12.78125 -28.65625 L 13.59375 -28.828125 L 16.453125 -28.984375 L 18.375 -28.953125 L 23.71875 -27.265625 L 25.796875 -25.96875 L 27.5625 -24.375 L 28.09375 -23.640625 L 28.578125 -23.15625 L 29.109375 -22.453125 L 29.390625 -21.71875 L 30.125 -20.375 L 30.328125 -19.4375 L 30.65625 -18.578125 L 30.984375 -17.0625 L 31.1875 -14.25 L 30.984375 -11.390625 L 30.828125 -10.5 L 30.578125 -9.84375 L 30.453125 -9.015625 L 30.171875 -8.25 L 28.578125 -5.4375 L 28.046875 -4.6875 L 25.1875 -1.953125 L 21.5625 -0.328125 L 20 0.15625 Z M 15.234375 -6.65625 L 17.59375 -6.734375 L 18.375 -6.9375 L 19.109375 -7.015625 L 19.765625 -7.390625 L 20.5 -7.71875 L 21.765625 -8.703125 L 22.25 -9.4375 L 22.625 -10.046875 L 23.0625 -10.65625 L 23.4375 -12.328125 L 23.6875 -14.375 L 23.515625 -16.125 L 23.234375 -16.859375 L 22.984375 -17.671875 L 22.65625 -18.40625 L 21.71875 -19.796875 L 20.453125 -20.734375 L 18.296875 -21.6875 L 16.328125 -21.796875 L 14.453125 -21.640625 L 13.59375 -21.4375 L 12.859375 -21.0625 L 11.671875 -20.25 L 11.0625 -19.71875 L 10.53125 -19.0625 L 10.171875 -18.375 L 9.671875 -17.796875 L 9.4375 -17.0625 L 9.140625 -15.5625 L 9.109375 -14.328125 L 9.3125 -12.296875 L 10.078125 -10 L 10.609375 -9.4375 L 11.03125 -8.859375 L 12.296875 -7.75 L 13.671875 -7.015625 L 14.40625 -6.9375 Z M 15.234375 -6.65625 "/></g></g></g><g fill="#ffffff" fill-opacity="1"><g transform="translate(49.99811, 296.5569)"><g><path d="M 3.0625 -1.671875 L 3.0625 -7.71875 L 2.984375 -8.53125 L 3.015625 -11.84375 L 3.109375 -12.609375 L 3.015625 -13.390625 L 3.015625 -14.203125 L 2.984375 -15.109375 L 3.109375 -16.734375 L 3.015625 -17.5625 L 2.984375 -26.90625 L 3.46875 -28.046875 L 4.203125 -28.453125 L 6.609375 -28.65625 L 7.515625 -28.625 L 8.328125 -28.453125 L 9.140625 -28.453125 L 9.875 -28.65625 L 10.703125 -28.65625 L 11.515625 -28.5 L 13.96875 -28.5 L 15.140625 -28.578125 L 16.453125 -28.53125 L 18.78125 -28.015625 L 20.328125 -27.484375 L 21.765625 -26.703125 L 24.09375 -24.25 L 24.53125 -23.59375 L 24.859375 -22.90625 L 25.59375 -20.578125 L 25.71875 -19.765625 L 25.796875 -17.1875 L 25.265625 -14.828125 L 23.6875 -11.96875 L 23.109375 -11.46875 L 22.53125 -10.859375 L 22.171875 -9.96875 L 22.203125 -8.984375 L 22.703125 -8.375 L 24 -6.25 L 24.375 -5.515625 L 25.765625 -3.421875 L 26.09375 -2.65625 L 26.578125 -2.078125 L 27.03125 -1.1875 L 26.78125 -0.28125 L 26 0.078125 L 24.65625 0.125 L 23.890625 0.046875 L 20.65625 0.078125 L 19.265625 -0.28125 L 18.375 -1.015625 L 17.921875 -1.71875 L 17.59375 -2.53125 L 17.140625 -3.140625 L 16.375 -4.609375 L 15.515625 -5.84375 L 15.1875 -6.578125 L 14.703125 -7.390625 L 13.875 -8.078125 L 11.515625 -8.40625 L 10.734375 -7.96875 L 10.375 -7.140625 L 10.28125 -4.53125 L 10.40625 -3.671875 L 10.328125 -2.9375 L 10.328125 -1.546875 L 9.96875 -0.375 L 8.65625 0.046875 L 7.4375 0.046875 L 6.78125 0.125 L 5.46875 0 L 4.65625 0.125 L 3.46875 -0.40625 Z M 11.515625 -14.9375 L 12.40625 -15.03125 L 14.375 -14.9375 L 15.140625 -14.984375 L 16.328125 -15.265625 L 17.0625 -15.59375 L 17.515625 -15.96875 L 17.96875 -16.578125 L 18.328125 -17.390625 L 18.453125 -18.625 L 18.296875 -19.671875 L 18.046875 -20.328125 L 17.03125 -21.59375 L 16.25 -21.796875 L 15.1875 -21.890625 L 14.046875 -22.125 L 12.40625 -21.96875 L 11.59375 -22 L 10.734375 -21.6875 L 10.375 -20.90625 L 10.28125 -19.1875 L 10.375 -18.5 L 10.375 -16.046875 L 10.703125 -15.390625 Z M 11.515625 -14.9375 "/></g></g></g><g fill="#ffffff" fill-opacity="1"><g transform="translate(78.327652, 296.5569)"><g><path d="M 14.171875 0.40625 L 13.34375 0.15625 L 11.03125 -0.25 L 10.328125 -0.453125 L 7.515625 -2.078125 L 6.171875 -3.015625 L 4.53125 -4.734375 L 3.59375 -6.125 L 2.859375 -7.515625 L 1.71875 -11.34375 L 1.515625 -14.203125 L 1.546875 -15.515625 L 2.28125 -19.5625 L 3.796875 -22.625 L 4.25 -23.234375 L 4.859375 -23.84375 L 5.390625 -24.5 L 7.1875 -26.09375 L 9.4375 -27.484375 L 12.578125 -28.625 L 13.34375 -28.65625 L 14.046875 -28.90625 L 14.859375 -28.953125 L 18.65625 -28.78125 L 20.578125 -28.25 L 21.4375 -28.09375 L 24.296875 -26.578125 L 24.90625 -26.09375 L 25.5625 -25.484375 L 26.453125 -24.734375 L 28.09375 -22.375 L 28.453125 -21.640625 L 29.03125 -19.96875 L 28.78125 -19.265625 L 27.765625 -18.828125 L 25.796875 -18.9375 L 24.578125 -18.78125 L 23.3125 -18.828125 L 22.328125 -19.109375 L 21.46875 -19.796875 L 20.9375 -20.5 L 20.453125 -21.03125 L 19.671875 -21.5625 L 18.90625 -21.890625 L 17.390625 -22.296875 L 14.90625 -22.203125 L 14.203125 -21.890625 L 13.4375 -21.796875 L 12.734375 -21.4375 L 11.3125 -20.421875 L 10.046875 -18.5 L 9.390625 -17.03125 L 9.109375 -15.4375 L 9.140625 -13.0625 L 9.34375 -11.765625 L 9.671875 -10.578125 L 10.453125 -9.109375 L 10.90625 -8.53125 L 12.125 -7.390625 L 14.328125 -6.484375 L 16.40625 -6.25 L 17.46875 -6.28125 L 19.0625 -6.65625 L 20.421875 -7.1875 L 20.984375 -7.640625 L 21.59375 -8.328125 L 22 -9.015625 L 21.890625 -9.71875 L 21.265625 -10 L 20.53125 -10.125 L 18.5 -9.96875 L 17.3125 -10.046875 L 16.578125 -10.5 L 16.203125 -11.140625 L 16.203125 -15.03125 L 16.578125 -15.796875 L 17.390625 -16.203125 L 18.9375 -16.328125 L 21.390625 -16.171875 L 26.90625 -16.296875 L 27.765625 -16.171875 L 28.625 -16.125 L 29.390625 -15.71875 L 29.796875 -15.03125 L 29.890625 -13.46875 L 29.796875 -12.703125 L 29.796875 -11.875 L 29.640625 -11.140625 L 29.59375 -10.453125 L 29.28125 -8.90625 L 28.453125 -6.484375 L 27.96875 -5.921875 L 27.59375 -5.1875 L 27.1875 -4.484375 L 26.703125 -3.921875 L 26.09375 -3.421875 L 25.484375 -2.78125 L 24.21875 -1.796875 L 21.3125 -0.328125 L 18.25 0.40625 Z M 14.171875 0.40625 "/></g></g></g><g fill="#ffffff" fill-opacity="1"><g transform="translate(109.596285, 296.5569)"><g><path d="M 24.09375 0.078125 L 23.234375 0 L 22.296875 -0.40625 L 21.46875 -1.015625 L 21.234375 -1.75 L 20.859375 -2.53125 L 20.09375 -3.1875 L 19.1875 -3.640625 L 18.296875 -3.515625 L 17.5625 -3.59375 L 13.5625 -3.546875 L 12.8125 -3.671875 L 11.109375 -3.515625 L 10.328125 -3.640625 L 9.46875 -3.1875 L 8.703125 -2.40625 L 7.96875 -1.0625 L 7.1875 -0.328125 L 6.25 -0.046875 L 3.953125 0.046875 L 3.140625 -0.046875 L 1.546875 0.046875 L 0.734375 -0.203125 L 0.53125 -1.21875 L 0.78125 -2.046875 L 1.59375 -3.671875 L 1.796875 -4.40625 L 2.25 -4.984375 L 2.859375 -6.609375 L 3.59375 -7.921875 L 3.875 -8.734375 L 4.28125 -9.34375 L 4.53125 -10.25 L 8.703125 -18.984375 L 8.9375 -19.71875 L 9.390625 -20.5 L 9.59375 -21.3125 L 10.046875 -21.921875 L 11.671875 -25.6875 L 12.046875 -26.25 L 12.328125 -27.0625 L 12.703125 -27.765625 L 13.4375 -28.453125 L 14.734375 -28.90625 L 16.09375 -28.5 L 16.78125 -27.765625 L 17.5625 -26.328125 L 17.796875 -25.59375 L 18.25 -24.859375 L 18.5 -24.046875 L 21.1875 -18.375 L 21.46875 -17.515625 L 22.328125 -16 L 22.578125 -15.34375 L 22.953125 -14.734375 L 23.1875 -13.84375 L 23.59375 -13.0625 L 24 -12.453125 L 25.5625 -8.734375 L 26.375 -7.265625 L 26.953125 -5.75 L 28.046875 -3.640625 L 28.65625 -2.125 L 28.953125 -1.1875 L 28.828125 -0.203125 L 27.6875 0 L 26.421875 0.046875 L 25.640625 -0.046875 Z M 14.828125 -10.078125 L 16.453125 -10.125 L 17.0625 -10.453125 L 17.234375 -11.1875 L 15.3125 -15.671875 L 14.734375 -16 L 14.296875 -15.640625 L 12.375 -11.234375 L 12.40625 -10.453125 L 13.0625 -10.171875 L 14 -10.25 Z M 14.828125 -10.078125 "/></g></g></g><g fill="#ffffff" fill-opacity="1"><g transform="translate(139.232098, 296.5569)"><g><path d="M 24.09375 -0.6875 L 23.46875 -1.21875 L 22.421875 -2.40625 L 16.09375 -8.703125 L 15.390625 -9.140625 L 14.859375 -9.765625 L 11.96875 -12.53125 L 11.4375 -13.234375 L 10.90625 -13.4375 L 10.609375 -12.734375 L 10.53125 -11.921875 L 10.5 -1.59375 L 10.078125 -0.328125 L 9.265625 0.078125 L 8.40625 0.125 L 6.8125 0 L 5.921875 0.078125 L 4.25 0 L 3.390625 -0.28125 L 3.015625 -1.0625 L 2.9375 -4.484375 L 3.015625 -5.265625 L 2.9375 -11.96875 L 3.0625 -12.65625 L 2.984375 -14.328125 L 3.015625 -15.03125 L 3.015625 -27.390625 L 3.390625 -28.171875 L 4.328125 -28.578125 L 5.546875 -28.296875 L 6.484375 -27.796875 L 7.109375 -27.3125 L 15.140625 -19.1875 L 16.296875 -18.296875 L 19.1875 -15.390625 L 19.796875 -15.109375 L 20.046875 -15.796875 L 20.125 -23.109375 L 20.046875 -24 L 20.171875 -25.71875 L 20.046875 -26.375 L 20.09375 -27.234375 L 20.53125 -28.09375 L 21.3125 -28.53125 L 26.375 -28.578125 L 27.1875 -28.125 L 27.59375 -27.3125 L 27.71875 -21.640625 L 27.59375 -20.65625 L 27.59375 -16.609375 L 27.71875 -15.921875 L 27.640625 -1.015625 L 27.234375 -0.203125 L 26.328125 0.078125 L 25.1875 -0.046875 Z M 24.09375 -0.6875 "/></g></g></g><g fill="#ffffff" fill-opacity="1"><g transform="translate(170.010879, 296.5569)"><g><path d="M 13.671875 0.15625 L 12.859375 -0.046875 L 10.859375 -0.046875 L 9.640625 0.125 L 8 -0.046875 L 7.1875 0.046875 L 5.921875 0.078125 L 4.734375 -0.078125 L 3.953125 0 L 3.1875 0 L 2.375 -0.375 L 1.953125 -1.46875 L 2.078125 -5.21875 L 2.53125 -5.953125 L 5.21875 -6.78125 L 5.671875 -8 L 5.546875 -20.53125 L 5.1875 -21.640625 L 4.40625 -22.125 L 3.59375 -22.125 L 2.6875 -22.578125 L 2.25 -23.390625 L 2.328125 -24.171875 L 2.203125 -27.1875 L 2.609375 -28.171875 L 3.421875 -28.578125 L 4.375 -28.578125 L 5.140625 -28.453125 L 8.5 -28.453125 L 9.3125 -28.625 L 10.046875 -28.53125 L 14.984375 -28.53125 L 15.71875 -28.09375 L 16.203125 -27.3125 L 16.171875 -23.265625 L 15.765625 -22.625 L 14.90625 -22.296875 L 14.078125 -22.171875 L 13.1875 -21.796875 L 12.90625 -20.859375 L 12.734375 -16.734375 L 12.90625 -13.796875 L 12.8125 -12.90625 L 12.859375 -8.40625 L 12.734375 -7.640625 L 13.234375 -6.703125 L 14.203125 -6.375 L 15.0625 -6.375 L 15.96875 -5.921875 L 16.453125 -5.140625 L 16.453125 -1.109375 L 16.046875 -0.328125 L 15.3125 0.078125 Z M 13.671875 0.15625 "/></g></g></g><g fill="#ffffff" fill-opacity="1"><g transform="translate(188.543465, 296.5569)"><g><path d="M 1.015625 -1.109375 L 1.34375 -2.078125 L 1.75 -2.90625 L 2.28125 -3.640625 L 3.34375 -5.796875 L 4.203125 -7.140625 L 4.9375 -8.703125 L 5.4375 -9.34375 L 6.171875 -10.8125 L 6.65625 -11.546875 L 11.671875 -20.859375 L 11.765625 -21.640625 L 11.234375 -22 L 6.328125 -22.046875 L 5.546875 -21.921875 L 4.734375 -22.046875 L 3.546875 -22.046875 L 2.328125 -22.375 L 1.875 -23.15625 L 1.921875 -26.5 L 1.84375 -27.359375 L 2.375 -28.21875 L 3.015625 -28.625 L 3.796875 -28.53125 L 5.515625 -28.53125 L 6.25 -28.625 L 7.109375 -28.53125 L 10.28125 -28.53125 L 11.140625 -28.65625 L 11.96875 -28.53125 L 18 -28.578125 L 19.0625 -28.453125 L 21.46875 -28.53125 L 22.25 -28.453125 L 23.0625 -28.171875 L 23.359375 -27.265625 L 20.171875 -21.359375 L 19.671875 -20.65625 L 18.9375 -19.0625 L 18.578125 -18.53125 L 17.359375 -16.203125 L 16.859375 -15.515625 L 15.109375 -12.203125 L 14.5 -11.265625 L 14.078125 -10.453125 L 13.671875 -9.796875 L 13.34375 -8.9375 L 12.9375 -8.203125 L 12.453125 -7.59375 L 12.53125 -6.90625 L 13.234375 -6.484375 L 14.046875 -6.53125 L 14.90625 -6.484375 L 15.640625 -6.578125 L 19.84375 -6.53125 L 20.625 -6.453125 L 21.46875 -6.484375 L 22.421875 -6.453125 L 23.265625 -6.046875 L 23.59375 -5.265625 L 23.6875 -4.53125 L 23.6875 -2.8125 L 23.59375 -1.953125 L 23.640625 -1.140625 L 23.234375 -0.453125 L 22.421875 -0.046875 L 21.6875 0.046875 L 17.5625 0.046875 L 16.65625 0.125 L 15.875 -0.046875 L 15.0625 0.078125 L 14.203125 0.078125 L 13.34375 0.15625 L 12.65625 0.046875 L 11.875 0 L 10.984375 0.15625 L 2 0.125 L 1.1875 -0.25 Z M 1.015625 -1.109375 "/></g></g></g><g fill="#ffffff" fill-opacity="1"><g transform="translate(213.729822, 296.5569)"><g><path d="M 24.09375 0.078125 L 23.234375 0 L 22.296875 -0.40625 L 21.46875 -1.015625 L 21.234375 -1.75 L 20.859375 -2.53125 L 20.09375 -3.1875 L 19.1875 -3.640625 L 18.296875 -3.515625 L 17.5625 -3.59375 L 13.5625 -3.546875 L 12.8125 -3.671875 L 11.109375 -3.515625 L 10.328125 -3.640625 L 9.46875 -3.1875 L 8.703125 -2.40625 L 7.96875 -1.0625 L 7.1875 -0.328125 L 6.25 -0.046875 L 3.953125 0.046875 L 3.140625 -0.046875 L 1.546875 0.046875 L 0.734375 -0.203125 L 0.53125 -1.21875 L 0.78125 -2.046875 L 1.59375 -3.671875 L 1.796875 -4.40625 L 2.25 -4.984375 L 2.859375 -6.609375 L 3.59375 -7.921875 L 3.875 -8.734375 L 4.28125 -9.34375 L 4.53125 -10.25 L 8.703125 -18.984375 L 8.9375 -19.71875 L 9.390625 -20.5 L 9.59375 -21.3125 L 10.046875 -21.921875 L 11.671875 -25.6875 L 12.046875 -26.25 L 12.328125 -27.0625 L 12.703125 -27.765625 L 13.4375 -28.453125 L 14.734375 -28.90625 L 16.09375 -28.5 L 16.78125 -27.765625 L 17.5625 -26.328125 L 17.796875 -25.59375 L 18.25 -24.859375 L 18.5 -24.046875 L 21.1875 -18.375 L 21.46875 -17.515625 L 22.328125 -16 L 22.578125 -15.34375 L 22.953125 -14.734375 L 23.1875 -13.84375 L 23.59375 -13.0625 L 24 -12.453125 L 25.5625 -8.734375 L 26.375 -7.265625 L 26.953125 -5.75 L 28.046875 -3.640625 L 28.65625 -2.125 L 28.953125 -1.1875 L 28.828125 -0.203125 L 27.6875 0 L 26.421875 0.046875 L 25.640625 -0.046875 Z M 14.828125 -10.078125 L 16.453125 -10.125 L 17.0625 -10.453125 L 17.234375 -11.1875 L 15.3125 -15.671875 L 14.734375 -16 L 14.296875 -15.640625 L 12.375 -11.234375 L 12.40625 -10.453125 L 13.0625 -10.171875 L 14 -10.25 Z M 14.828125 -10.078125 "/></g></g></g><g fill="#8c52ff" fill-opacity="1"><g transform="translate(244.303524, 295.406011)"><g><path d="M 5.640625 0 C 5.285156 0 5.109375 -0.175781 5.109375 -0.53125 L 5.109375 -28.046875 C 5.109375 -28.398438 5.285156 -28.578125 5.640625 -28.578125 L 8.203125 -28.578125 C 8.554688 -28.578125 8.734375 -28.398438 8.734375 -28.046875 L 8.734375 -3.421875 L 32.125 -3.421875 C 32.476562 -3.421875 32.65625 -3.25 32.65625 -2.90625 L 32.65625 -0.53125 C 32.65625 -0.175781 32.476562 0 32.125 0 Z M 5.640625 0 "/></g></g></g><g fill="#8c52ff" fill-opacity="1"><g transform="translate(277.980585, 295.406011)"><g><path d="M 35.921875 -0.890625 C 36.003906 -0.734375 36.046875 -0.585938 36.046875 -0.453125 C 36.046875 -0.148438 35.828125 0 35.390625 0 L 33.109375 0 C 32.890625 0 32.710938 -0.0390625 32.578125 -0.125 C 32.441406 -0.207031 32.304688 -0.359375 32.171875 -0.578125 L 28.375 -7.140625 L 7.265625 -7.140625 L 3.46875 -0.578125 C 3.28125 -0.191406 2.96875 0 2.53125 0 L 0.203125 0 C -0.203125 0 -0.40625 -0.175781 -0.40625 -0.53125 C -0.40625 -0.632812 -0.363281 -0.769531 -0.28125 -0.9375 L 15.46875 -28.015625 C 15.582031 -28.222656 15.710938 -28.367188 15.859375 -28.453125 C 16.015625 -28.535156 16.195312 -28.578125 16.40625 -28.578125 L 19.234375 -28.578125 C 19.453125 -28.578125 19.632812 -28.535156 19.78125 -28.453125 C 19.925781 -28.367188 20.054688 -28.222656 20.171875 -28.015625 Z M 17.921875 -25.1875 L 17.71875 -25.1875 L 13.640625 -18.09375 L 9.1875 -10.453125 L 26.453125 -10.453125 Z M 17.921875 -25.1875 "/></g></g></g><g fill="#8c52ff" fill-opacity="1"><g transform="translate(313.657845, 295.406011)"><g><path d="M 31.484375 -15.875 C 33.460938 -15.851562 34.9375 -15.363281 35.90625 -14.40625 C 36.875 -13.457031 37.359375 -11.988281 37.359375 -10 L 37.359375 -6.578125 C 37.359375 -4.265625 36.835938 -2.585938 35.796875 -1.546875 C 34.765625 -0.515625 33.09375 0 30.78125 0 L 5.640625 0 C 5.285156 0 5.109375 -0.175781 5.109375 -0.53125 L 5.109375 -28.046875 C 5.109375 -28.398438 5.285156 -28.578125 5.640625 -28.578125 L 27.109375 -28.578125 C 29.421875 -28.578125 31.09375 -28.097656 32.125 -27.140625 C 33.164062 -26.191406 33.6875 -24.6875 33.6875 -22.625 L 33.6875 -20.65625 C 33.6875 -18.207031 32.953125 -16.6875 31.484375 -16.09375 Z M 8.734375 -25.4375 L 8.734375 -16.171875 L 26.5 -16.171875 C 27.75 -16.171875 28.648438 -16.453125 29.203125 -17.015625 C 29.765625 -17.585938 30.046875 -18.503906 30.046875 -19.765625 L 30.046875 -21.84375 C 30.046875 -23.09375 29.765625 -24.003906 29.203125 -24.578125 C 28.648438 -25.148438 27.75 -25.4375 26.5 -25.4375 Z M 33.71875 -9.4375 C 33.71875 -10.6875 33.4375 -11.597656 32.875 -12.171875 C 32.320312 -12.742188 31.421875 -13.03125 30.171875 -13.03125 L 8.734375 -13.03125 L 8.734375 -3.1875 L 30.171875 -3.1875 C 31.421875 -3.1875 32.320312 -3.460938 32.875 -4.015625 C 33.4375 -4.578125 33.71875 -5.484375 33.71875 -6.734375 Z M 33.71875 -9.4375 "/></g></g></g></svg>