<svg xmlns="http://www.w3.org/2000/svg" xmlns:xlink="http://www.w3.org/1999/xlink" width="500" zoomAndPan="magnify" viewBox="0 0 375 374.999991" height="500" preserveAspectRatio="xMidYMid meet" version="1.0"><defs><g/><radialGradient gradientTransform="matrix(1, 0, 0, 1, 0.0000045, 0)" gradientUnits="userSpaceOnUse" r="530.33023" cx="0" id="ccf5b998de" cy="0" fx="0" fy="0"><stop stop-opacity="1" stop-color="rgb(0.100708%, 0.100708%, 0.100708%)" offset="0"/><stop stop-opacity="1" stop-color="rgb(0.302124%, 0.302124%, 0.302124%)" offset="0.00390625"/><stop stop-opacity="1" stop-color="rgb(0.505066%, 0.505066%, 0.505066%)" offset="0.0078125"/><stop stop-opacity="1" stop-color="rgb(0.706482%, 0.706482%, 0.706482%)" offset="0.0117188"/><stop stop-opacity="1" stop-color="rgb(0.909424%, 0.909424%, 0.909424%)" offset="0.015625"/><stop stop-opacity="1" stop-color="rgb(1.112366%, 1.112366%, 1.112366%)" offset="0.0195312"/><stop stop-opacity="1" stop-color="rgb(1.313782%, 1.313782%, 1.313782%)" offset="0.0234375"/><stop stop-opacity="1" stop-color="rgb(1.516724%, 1.516724%, 1.516724%)" offset="0.0273438"/><stop stop-opacity="1" stop-color="rgb(1.71814%, 1.71814%, 1.71814%)" offset="0.03125"/><stop stop-opacity="1" stop-color="rgb(1.921082%, 1.921082%, 1.921082%)" offset="0.0351562"/><stop stop-opacity="1" stop-color="rgb(2.124023%, 2.124023%, 2.124023%)" offset="0.0390625"/><stop stop-opacity="1" stop-color="rgb(2.325439%, 2.325439%, 2.325439%)" offset="0.0429688"/><stop stop-opacity="1" stop-color="rgb(2.528381%, 2.528381%, 2.528381%)" offset="0.046875"/><stop stop-opacity="1" stop-color="rgb(2.729797%, 2.729797%, 2.729797%)" offset="0.0507812"/><stop stop-opacity="1" stop-color="rgb(2.932739%, 2.932739%, 2.932739%)" offset="0.0546875"/><stop stop-opacity="1" stop-color="rgb(3.135681%, 3.135681%, 3.135681%)" offset="0.0585938"/><stop stop-opacity="1" stop-color="rgb(3.337097%, 3.337097%, 3.337097%)" offset="0.0625"/><stop stop-opacity="1" stop-color="rgb(3.540039%, 3.540039%, 3.540039%)" offset="0.0664062"/><stop stop-opacity="1" stop-color="rgb(3.741455%, 3.741455%, 3.741455%)" offset="0.0703125"/><stop stop-opacity="1" stop-color="rgb(3.944397%, 3.944397%, 3.944397%)" offset="0.0742188"/><stop stop-opacity="1" stop-color="rgb(4.147339%, 4.147339%, 4.147339%)" offset="0.078125"/><stop stop-opacity="1" stop-color="rgb(4.348755%, 4.348755%, 4.348755%)" offset="0.0820312"/><stop stop-opacity="1" stop-color="rgb(4.551697%, 4.551697%, 4.551697%)" offset="0.0859375"/><stop stop-opacity="1" stop-color="rgb(4.753113%, 4.753113%, 4.753113%)" offset="0.0898438"/><stop stop-opacity="1" stop-color="rgb(4.956055%, 4.956055%, 4.956055%)" offset="0.09375"/><stop stop-opacity="1" stop-color="rgb(5.158997%, 5.158997%, 5.158997%)" offset="0.0976562"/><stop stop-opacity="1" stop-color="rgb(5.360413%, 5.360413%, 5.360413%)" offset="0.101562"/><stop stop-opacity="1" stop-color="rgb(5.563354%, 5.563354%, 5.563354%)" offset="0.105469"/><stop stop-opacity="1" stop-color="rgb(5.766296%, 5.766296%, 5.766296%)" offset="0.109375"/><stop stop-opacity="1" stop-color="rgb(5.967712%, 5.967712%, 5.967712%)" offset="0.113281"/><stop stop-opacity="1" stop-color="rgb(6.170654%, 6.170654%, 6.170654%)" offset="0.117188"/><stop stop-opacity="1" stop-color="rgb(6.37207%, 6.37207%, 6.37207%)" offset="0.121094"/><stop stop-opacity="1" stop-color="rgb(6.575012%, 6.575012%, 6.575012%)" offset="0.125"/><stop stop-opacity="1" stop-color="rgb(6.777954%, 6.777954%, 6.777954%)" offset="0.128906"/><stop stop-opacity="1" stop-color="rgb(6.97937%, 6.97937%, 6.97937%)" offset="0.132812"/><stop stop-opacity="1" stop-color="rgb(7.182312%, 7.182312%, 7.182312%)" offset="0.136719"/><stop stop-opacity="1" stop-color="rgb(7.383728%, 7.383728%, 7.383728%)" offset="0.140625"/><stop stop-opacity="1" stop-color="rgb(7.58667%, 7.58667%, 7.58667%)" offset="0.144531"/><stop stop-opacity="1" stop-color="rgb(7.789612%, 7.789612%, 7.789612%)" offset="0.148438"/><stop stop-opacity="1" stop-color="rgb(7.991028%, 7.991028%, 7.991028%)" offset="0.152344"/><stop stop-opacity="1" stop-color="rgb(8.19397%, 8.19397%, 8.19397%)" offset="0.15625"/><stop stop-opacity="1" stop-color="rgb(8.395386%, 8.395386%, 8.395386%)" offset="0.160156"/><stop stop-opacity="1" stop-color="rgb(8.598328%, 8.598328%, 8.598328%)" offset="0.164062"/><stop stop-opacity="1" stop-color="rgb(8.80127%, 8.80127%, 8.80127%)" offset="0.167969"/><stop stop-opacity="1" stop-color="rgb(9.002686%, 9.002686%, 9.002686%)" offset="0.171875"/><stop stop-opacity="1" stop-color="rgb(9.205627%, 9.205627%, 9.205627%)" offset="0.175781"/><stop stop-opacity="1" stop-color="rgb(9.407043%, 9.407043%, 9.407043%)" offset="0.179688"/><stop stop-opacity="1" stop-color="rgb(9.609985%, 9.609985%, 9.609985%)" offset="0.183594"/><stop stop-opacity="1" stop-color="rgb(9.812927%, 9.812927%, 9.812927%)" offset="0.1875"/><stop stop-opacity="1" stop-color="rgb(10.014343%, 10.014343%, 10.014343%)" offset="0.191406"/><stop stop-opacity="1" stop-color="rgb(10.217285%, 10.217285%, 10.217285%)" offset="0.195312"/><stop stop-opacity="1" stop-color="rgb(10.420227%, 10.420227%, 10.420227%)" offset="0.199219"/><stop stop-opacity="1" stop-color="rgb(10.621643%, 10.621643%, 10.621643%)" offset="0.203125"/><stop stop-opacity="1" stop-color="rgb(10.824585%, 10.824585%, 10.824585%)" offset="0.207031"/><stop stop-opacity="1" stop-color="rgb(11.026001%, 11.026001%, 11.026001%)" offset="0.210938"/><stop stop-opacity="1" stop-color="rgb(11.228943%, 11.228943%, 11.228943%)" offset="0.214844"/><stop stop-opacity="1" stop-color="rgb(11.431885%, 11.431885%, 11.431885%)" offset="0.21875"/><stop stop-opacity="1" stop-color="rgb(11.633301%, 11.633301%, 11.633301%)" offset="0.222656"/><stop stop-opacity="1" stop-color="rgb(11.836243%, 11.836243%, 11.836243%)" offset="0.226562"/><stop stop-opacity="1" stop-color="rgb(12.037659%, 12.037659%, 12.037659%)" offset="0.230469"/><stop stop-opacity="1" stop-color="rgb(12.240601%, 12.240601%, 12.240601%)" offset="0.234375"/><stop stop-opacity="1" stop-color="rgb(12.443542%, 12.443542%, 12.443542%)" offset="0.238281"/><stop stop-opacity="1" stop-color="rgb(12.644958%, 12.644958%, 12.644958%)" offset="0.242188"/><stop stop-opacity="1" stop-color="rgb(12.8479%, 12.8479%, 12.8479%)" offset="0.246094"/><stop stop-opacity="1" stop-color="rgb(13.049316%, 13.049316%, 13.049316%)" offset="0.25"/><stop stop-opacity="1" stop-color="rgb(13.252258%, 13.252258%, 13.252258%)" offset="0.253906"/><stop stop-opacity="1" stop-color="rgb(13.4552%, 13.4552%, 13.4552%)" offset="0.257812"/><stop stop-opacity="1" stop-color="rgb(13.656616%, 13.656616%, 13.656616%)" offset="0.261719"/><stop stop-opacity="1" stop-color="rgb(13.859558%, 13.859558%, 13.859558%)" offset="0.265625"/><stop stop-opacity="1" stop-color="rgb(14.060974%, 14.060974%, 14.060974%)" offset="0.269531"/><stop stop-opacity="1" stop-color="rgb(14.263916%, 14.263916%, 14.263916%)" offset="0.273438"/><stop stop-opacity="1" stop-color="rgb(14.466858%, 14.466858%, 14.466858%)" offset="0.277344"/><stop stop-opacity="1" stop-color="rgb(14.668274%, 14.668274%, 14.668274%)" offset="0.28125"/><stop stop-opacity="1" stop-color="rgb(14.871216%, 14.871216%, 14.871216%)" offset="0.285156"/><stop stop-opacity="1" stop-color="rgb(15.072632%, 15.072632%, 15.072632%)" offset="0.289062"/><stop stop-opacity="1" stop-color="rgb(15.275574%, 15.275574%, 15.275574%)" offset="0.292969"/><stop stop-opacity="1" stop-color="rgb(15.478516%, 15.478516%, 15.478516%)" offset="0.296875"/><stop stop-opacity="1" stop-color="rgb(15.679932%, 15.679932%, 15.679932%)" offset="0.300781"/><stop stop-opacity="1" stop-color="rgb(15.882874%, 15.882874%, 15.882874%)" offset="0.304688"/><stop stop-opacity="1" stop-color="rgb(16.085815%, 16.085815%, 16.085815%)" offset="0.308594"/><stop stop-opacity="1" stop-color="rgb(16.287231%, 16.287231%, 16.287231%)" offset="0.3125"/><stop stop-opacity="1" stop-color="rgb(16.490173%, 16.490173%, 16.490173%)" offset="0.316406"/><stop stop-opacity="1" stop-color="rgb(16.691589%, 16.691589%, 16.691589%)" offset="0.320312"/><stop stop-opacity="1" stop-color="rgb(16.894531%, 16.894531%, 16.894531%)" offset="0.324219"/><stop stop-opacity="1" stop-color="rgb(17.097473%, 17.097473%, 17.097473%)" offset="0.328125"/><stop stop-opacity="1" stop-color="rgb(17.298889%, 17.298889%, 17.298889%)" offset="0.332031"/><stop stop-opacity="1" stop-color="rgb(17.501831%, 17.501831%, 17.501831%)" offset="0.335938"/><stop stop-opacity="1" stop-color="rgb(17.703247%, 17.703247%, 17.703247%)" offset="0.339844"/><stop stop-opacity="1" stop-color="rgb(17.906189%, 17.906189%, 17.906189%)" offset="0.34375"/><stop stop-opacity="1" stop-color="rgb(18.109131%, 18.109131%, 18.109131%)" offset="0.347656"/><stop stop-opacity="1" stop-color="rgb(18.310547%, 18.310547%, 18.310547%)" offset="0.351562"/><stop stop-opacity="1" stop-color="rgb(18.513489%, 18.513489%, 18.513489%)" offset="0.355469"/><stop stop-opacity="1" stop-color="rgb(18.714905%, 18.714905%, 18.714905%)" offset="0.359375"/><stop stop-opacity="1" stop-color="rgb(18.917847%, 18.917847%, 18.917847%)" offset="0.363281"/><stop stop-opacity="1" stop-color="rgb(19.120789%, 19.120789%, 19.120789%)" offset="0.367188"/><stop stop-opacity="1" stop-color="rgb(19.322205%, 19.322205%, 19.322205%)" offset="0.371094"/><stop stop-opacity="1" stop-color="rgb(19.525146%, 19.525146%, 19.525146%)" offset="0.375"/><stop stop-opacity="1" stop-color="rgb(19.726562%, 19.726562%, 19.726562%)" offset="0.378906"/><stop stop-opacity="1" stop-color="rgb(19.929504%, 19.929504%, 19.929504%)" offset="0.382812"/><stop stop-opacity="1" stop-color="rgb(20.132446%, 20.132446%, 20.132446%)" offset="0.386719"/><stop stop-opacity="1" stop-color="rgb(20.333862%, 20.333862%, 20.333862%)" offset="0.390625"/><stop stop-opacity="1" stop-color="rgb(20.536804%, 20.536804%, 20.536804%)" offset="0.394531"/><stop stop-opacity="1" stop-color="rgb(20.739746%, 20.739746%, 20.739746%)" offset="0.398438"/><stop stop-opacity="1" stop-color="rgb(20.941162%, 20.941162%, 20.941162%)" offset="0.402344"/><stop stop-opacity="1" stop-color="rgb(21.144104%, 21.144104%, 21.144104%)" offset="0.40625"/><stop stop-opacity="1" stop-color="rgb(21.34552%, 21.34552%, 21.34552%)" offset="0.410156"/><stop stop-opacity="1" stop-color="rgb(21.548462%, 21.548462%, 21.548462%)" offset="0.414062"/><stop stop-opacity="1" stop-color="rgb(21.751404%, 21.751404%, 21.751404%)" offset="0.417969"/><stop stop-opacity="1" stop-color="rgb(21.95282%, 21.95282%, 21.95282%)" offset="0.421875"/><stop stop-opacity="1" stop-color="rgb(22.155762%, 22.155762%, 22.155762%)" offset="0.425781"/><stop stop-opacity="1" stop-color="rgb(22.357178%, 22.357178%, 22.357178%)" offset="0.429688"/><stop stop-opacity="1" stop-color="rgb(22.56012%, 22.56012%, 22.56012%)" offset="0.433594"/><stop stop-opacity="1" stop-color="rgb(22.763062%, 22.763062%, 22.763062%)" offset="0.4375"/><stop stop-opacity="1" stop-color="rgb(22.964478%, 22.964478%, 22.964478%)" offset="0.441406"/><stop stop-opacity="1" stop-color="rgb(23.167419%, 23.167419%, 23.167419%)" offset="0.445312"/><stop stop-opacity="1" stop-color="rgb(23.368835%, 23.368835%, 23.368835%)" offset="0.449219"/><stop stop-opacity="1" stop-color="rgb(23.571777%, 23.571777%, 23.571777%)" offset="0.453125"/><stop stop-opacity="1" stop-color="rgb(23.774719%, 23.774719%, 23.774719%)" offset="0.457031"/><stop stop-opacity="1" stop-color="rgb(23.976135%, 23.976135%, 23.976135%)" offset="0.460938"/><stop stop-opacity="1" stop-color="rgb(24.179077%, 24.179077%, 24.179077%)" offset="0.464844"/><stop stop-opacity="1" stop-color="rgb(24.380493%, 24.380493%, 24.380493%)" offset="0.46875"/><stop stop-opacity="1" stop-color="rgb(24.583435%, 24.583435%, 24.583435%)" offset="0.472656"/><stop stop-opacity="1" stop-color="rgb(24.786377%, 24.786377%, 24.786377%)" offset="0.476562"/><stop stop-opacity="1" stop-color="rgb(24.987793%, 24.987793%, 24.987793%)" offset="0.480469"/><stop stop-opacity="1" stop-color="rgb(25.190735%, 25.190735%, 25.190735%)" offset="0.484375"/><stop stop-opacity="1" stop-color="rgb(25.393677%, 25.393677%, 25.393677%)" offset="0.488281"/><stop stop-opacity="1" stop-color="rgb(25.595093%, 25.595093%, 25.595093%)" offset="0.492188"/><stop stop-opacity="1" stop-color="rgb(25.622559%, 25.622559%, 25.567627%)" offset="0.496094"/><stop stop-opacity="1" stop-color="rgb(25.491333%, 25.491333%, 25.363159%)" offset="0.511719"/><stop stop-opacity="1" stop-color="rgb(25.375366%, 25.375366%, 25.210571%)" offset="0.515625"/><stop stop-opacity="1" stop-color="rgb(25.259399%, 25.259399%, 25.056458%)" offset="0.519531"/><stop stop-opacity="1" stop-color="rgb(25.141907%, 25.141907%, 24.90387%)" offset="0.523438"/><stop stop-opacity="1" stop-color="rgb(25.02594%, 25.02594%, 24.751282%)" offset="0.527344"/><stop stop-opacity="1" stop-color="rgb(24.909973%, 24.909973%, 24.597168%)" offset="0.53125"/><stop stop-opacity="1" stop-color="rgb(24.79248%, 24.79248%, 24.44458%)" offset="0.535156"/><stop stop-opacity="1" stop-color="rgb(24.676514%, 24.676514%, 24.290466%)" offset="0.539062"/><stop stop-opacity="1" stop-color="rgb(24.560547%, 24.560547%, 24.137878%)" offset="0.542969"/><stop stop-opacity="1" stop-color="rgb(24.44458%, 24.44458%, 23.985291%)" offset="0.546875"/><stop stop-opacity="1" stop-color="rgb(24.327087%, 24.327087%, 23.831177%)" offset="0.550781"/><stop stop-opacity="1" stop-color="rgb(24.211121%, 24.211121%, 23.678589%)" offset="0.554688"/><stop stop-opacity="1" stop-color="rgb(24.095154%, 24.095154%, 23.526001%)" offset="0.558594"/><stop stop-opacity="1" stop-color="rgb(23.977661%, 23.977661%, 23.371887%)" offset="0.5625"/><stop stop-opacity="1" stop-color="rgb(23.861694%, 23.861694%, 23.219299%)" offset="0.566406"/><stop stop-opacity="1" stop-color="rgb(23.745728%, 23.745728%, 23.066711%)" offset="0.570312"/><stop stop-opacity="1" stop-color="rgb(23.629761%, 23.629761%, 22.912598%)" offset="0.574219"/><stop stop-opacity="1" stop-color="rgb(23.512268%, 23.512268%, 22.76001%)" offset="0.578125"/><stop stop-opacity="1" stop-color="rgb(23.396301%, 23.396301%, 22.607422%)" offset="0.582031"/><stop stop-opacity="1" stop-color="rgb(23.280334%, 23.280334%, 22.453308%)" offset="0.585938"/><stop stop-opacity="1" stop-color="rgb(23.162842%, 23.162842%, 22.30072%)" offset="0.589844"/><stop stop-opacity="1" stop-color="rgb(23.046875%, 23.046875%, 22.148132%)" offset="0.59375"/><stop stop-opacity="1" stop-color="rgb(22.930908%, 22.930908%, 21.994019%)" offset="0.597656"/><stop stop-opacity="1" stop-color="rgb(22.814941%, 22.814941%, 21.841431%)" offset="0.601562"/><stop stop-opacity="1" stop-color="rgb(22.697449%, 22.697449%, 21.687317%)" offset="0.605469"/><stop stop-opacity="1" stop-color="rgb(22.581482%, 22.581482%, 21.534729%)" offset="0.609375"/><stop stop-opacity="1" stop-color="rgb(22.465515%, 22.465515%, 21.382141%)" offset="0.613281"/><stop stop-opacity="1" stop-color="rgb(22.348022%, 22.348022%, 21.228027%)" offset="0.617188"/><stop stop-opacity="1" stop-color="rgb(22.232056%, 22.232056%, 21.075439%)" offset="0.621094"/><stop stop-opacity="1" stop-color="rgb(22.116089%, 22.116089%, 20.922852%)" offset="0.625"/><stop stop-opacity="1" stop-color="rgb(21.940613%, 21.940613%, 20.692444%)" offset="0.628906"/><stop stop-opacity="1" stop-color="rgb(21.708679%, 21.708679%, 20.385742%)" offset="0.636719"/><stop stop-opacity="1" stop-color="rgb(21.47522%, 21.47522%, 20.080566%)" offset="0.644531"/><stop stop-opacity="1" stop-color="rgb(21.243286%, 21.243286%, 19.773865%)" offset="0.652344"/><stop stop-opacity="1" stop-color="rgb(21.009827%, 21.009827%, 19.467163%)" offset="0.660156"/><stop stop-opacity="1" stop-color="rgb(20.776367%, 20.776367%, 19.160461%)" offset="0.667969"/><stop stop-opacity="1" stop-color="rgb(20.544434%, 20.544434%, 18.855286%)" offset="0.675781"/><stop stop-opacity="1" stop-color="rgb(20.310974%, 20.310974%, 18.548584%)" offset="0.683594"/><stop stop-opacity="1" stop-color="rgb(20.079041%, 20.079041%, 18.241882%)" offset="0.691406"/><stop stop-opacity="1" stop-color="rgb(19.845581%, 19.845581%, 17.936707%)" offset="0.699219"/><stop stop-opacity="1" stop-color="rgb(19.612122%, 19.612122%, 17.630005%)" offset="0.707031"/><stop stop-opacity="1" stop-color="rgb(19.380188%, 19.380188%, 17.323303%)" offset="0.714844"/><stop stop-opacity="1" stop-color="rgb(19.146729%, 19.146729%, 17.018127%)" offset="0.722656"/><stop stop-opacity="1" stop-color="rgb(18.914795%, 18.914795%, 16.711426%)" offset="0.730469"/><stop stop-opacity="1" stop-color="rgb(18.681335%, 18.681335%, 16.404724%)" offset="0.738281"/><stop stop-opacity="1" stop-color="rgb(18.449402%, 18.449402%, 16.098022%)" offset="0.746094"/><stop stop-opacity="1" stop-color="rgb(18.273926%, 18.273926%, 15.869141%)" offset="0.753906"/><stop stop-opacity="1" stop-color="rgb(18.157959%, 18.157959%, 15.716553%)" offset="0.757812"/><stop stop-opacity="1" stop-color="rgb(18.041992%, 18.041992%, 15.562439%)" offset="0.761719"/><stop stop-opacity="1" stop-color="rgb(17.9245%, 17.9245%, 15.409851%)" offset="0.765625"/><stop stop-opacity="1" stop-color="rgb(17.808533%, 17.808533%, 15.257263%)" offset="0.769531"/><stop stop-opacity="1" stop-color="rgb(17.692566%, 17.692566%, 15.103149%)" offset="0.773438"/><stop stop-opacity="1" stop-color="rgb(17.576599%, 17.576599%, 14.950562%)" offset="0.777344"/><stop stop-opacity="1" stop-color="rgb(17.459106%, 17.459106%, 14.797974%)" offset="0.78125"/><stop stop-opacity="1" stop-color="rgb(17.34314%, 17.34314%, 14.64386%)" offset="0.785156"/><stop stop-opacity="1" stop-color="rgb(17.227173%, 17.227173%, 14.491272%)" offset="0.789062"/><stop stop-opacity="1" stop-color="rgb(17.10968%, 17.10968%, 14.338684%)" offset="0.792969"/><stop stop-opacity="1" stop-color="rgb(16.993713%, 16.993713%, 14.18457%)" offset="0.796875"/><stop stop-opacity="1" stop-color="rgb(16.877747%, 16.877747%, 14.031982%)" offset="0.800781"/><stop stop-opacity="1" stop-color="rgb(16.76178%, 16.76178%, 13.879395%)" offset="0.804688"/><stop stop-opacity="1" stop-color="rgb(16.644287%, 16.644287%, 13.725281%)" offset="0.808594"/><stop stop-opacity="1" stop-color="rgb(16.52832%, 16.52832%, 13.572693%)" offset="0.8125"/><stop stop-opacity="1" stop-color="rgb(16.352844%, 16.352844%, 13.342285%)" offset="0.816406"/><stop stop-opacity="1" stop-color="rgb(16.120911%, 16.120911%, 13.035583%)" offset="0.824219"/><stop stop-opacity="1" stop-color="rgb(15.887451%, 15.887451%, 12.730408%)" offset="0.832031"/><stop stop-opacity="1" stop-color="rgb(15.655518%, 15.655518%, 12.423706%)" offset="0.839844"/><stop stop-opacity="1" stop-color="rgb(15.422058%, 15.422058%, 12.117004%)" offset="0.847656"/><stop stop-opacity="1" stop-color="rgb(15.190125%, 15.190125%, 11.811829%)" offset="0.855469"/><stop stop-opacity="1" stop-color="rgb(14.956665%, 14.956665%, 11.505127%)" offset="0.863281"/><stop stop-opacity="1" stop-color="rgb(14.723206%, 14.723206%, 11.198425%)" offset="0.871094"/><stop stop-opacity="1" stop-color="rgb(14.549255%, 14.549255%, 10.969543%)" offset="0.878906"/><stop stop-opacity="1" stop-color="rgb(14.433289%, 14.433289%, 10.81543%)" offset="0.882812"/><stop stop-opacity="1" stop-color="rgb(14.317322%, 14.317322%, 10.662842%)" offset="0.886719"/><stop stop-opacity="1" stop-color="rgb(14.199829%, 14.199829%, 10.510254%)" offset="0.890625"/><stop stop-opacity="1" stop-color="rgb(14.083862%, 14.083862%, 10.35614%)" offset="0.894531"/><stop stop-opacity="1" stop-color="rgb(13.967896%, 13.967896%, 10.203552%)" offset="0.898438"/><stop stop-opacity="1" stop-color="rgb(13.850403%, 13.850403%, 10.050964%)" offset="0.902344"/><stop stop-opacity="1" stop-color="rgb(13.734436%, 13.734436%, 9.896851%)" offset="0.90625"/><stop stop-opacity="1" stop-color="rgb(13.560486%, 13.560486%, 9.667969%)" offset="0.910156"/><stop stop-opacity="1" stop-color="rgb(13.327026%, 13.327026%, 9.361267%)" offset="0.917969"/><stop stop-opacity="1" stop-color="rgb(13.093567%, 13.093567%, 9.054565%)" offset="0.925781"/><stop stop-opacity="1" stop-color="rgb(12.861633%, 12.861633%, 8.74939%)" offset="0.933594"/><stop stop-opacity="1" stop-color="rgb(12.686157%, 12.686157%, 8.518982%)" offset="0.941406"/><stop stop-opacity="1" stop-color="rgb(12.57019%, 12.57019%, 8.366394%)" offset="0.945312"/><stop stop-opacity="1" stop-color="rgb(12.454224%, 12.454224%, 8.21228%)" offset="0.949219"/><stop stop-opacity="1" stop-color="rgb(12.338257%, 12.338257%, 8.059692%)" offset="0.953125"/><stop stop-opacity="1" stop-color="rgb(12.162781%, 12.162781%, 7.829285%)" offset="0.957031"/><stop stop-opacity="1" stop-color="rgb(11.929321%, 11.929321%, 7.524109%)" offset="0.964844"/><stop stop-opacity="1" stop-color="rgb(11.755371%, 11.755371%, 7.293701%)" offset="0.972656"/><stop stop-opacity="1" stop-color="rgb(11.639404%, 11.639404%, 7.141113%)" offset="0.976562"/><stop stop-opacity="1" stop-color="rgb(11.463928%, 11.463928%, 6.910706%)" offset="0.980469"/><stop stop-opacity="1" stop-color="rgb(11.289978%, 11.289978%, 6.681824%)" offset="0.988281"/><stop stop-opacity="1" stop-color="rgb(11.114502%, 11.114502%, 6.451416%)" offset="0.992188"/><stop stop-opacity="1" stop-color="rgb(10.998535%, 10.998535%, 6.298828%)" offset="1"/></radialGradient><clipPath id="2883bbcfea"><path d="M 118.5 105.445312 L 268.5 105.445312 L 268.5 203 L 118.5 203 Z M 118.5 105.445312 " clip-rule="nonzero"/></clipPath><clipPath id="94138c5570"><path d="M 164 206 L 223 206 L 223 225.445312 L 164 225.445312 Z M 164 206 " clip-rule="nonzero"/></clipPath><clipPath id="97575bb2e0"><path d="M 134 105.445312 L 268.5 105.445312 L 268.5 189 L 134 189 Z M 134 105.445312 " clip-rule="nonzero"/></clipPath></defs><rect x="-37.5" width="450" fill="#ffffff" y="-37.499999" height="449.999989" fill-opacity="1"/><rect x="-37.5" fill="url(#ccf5b998de)" width="450" y="-37.499999" height="449.999989"/><g clip-path="url(#2883bbcfea)"><path fill="#ffffff" d="M 128.269531 114.015625 C 127.648438 114.015625 127.109375 114.550781 127.109375 115.164062 L 127.109375 193.230469 C 127.109375 193.851562 127.648438 194.378906 128.269531 194.378906 L 258.722656 194.378906 C 259.34375 194.378906 259.871094 193.84375 259.871094 193.230469 L 259.871094 147.328125 L 152.6875 185.171875 L 268.429688 129.460938 L 268.429688 194.03125 C 268.429688 198.941406 264.40625 202.957031 259.503906 202.957031 L 127.476562 202.957031 C 122.566406 202.957031 118.550781 198.941406 118.550781 194.03125 L 118.550781 114.375 C 118.550781 109.464844 122.566406 105.445312 127.476562 105.445312 L 243.90625 105.445312 L 163.203125 162.96875 L 214.925781 114.015625 Z M 128.269531 114.015625 " fill-opacity="1" fill-rule="evenodd"/></g><g clip-path="url(#94138c5570)"><path fill="#ffffff" d="M 183.15625 206.628906 L 181.785156 217.152344 L 171.039062 217.152344 C 166.367188 217.152344 164.164062 220.945312 164.164062 225.609375 L 222.835938 225.609375 C 222.835938 220.933594 220.632812 217.152344 215.960938 217.152344 L 205.214844 217.152344 L 203.84375 206.628906 L 183.148438 206.628906 Z M 183.15625 206.628906 " fill-opacity="1" fill-rule="evenodd"/></g><g clip-path="url(#97575bb2e0)"><path fill="#ffffff" d="M 134.738281 188.839844 L 256.757812 105.71875 L 268.449219 105.71875 L 268.449219 118.738281 Z M 134.738281 188.839844 " fill-opacity="1" fill-rule="evenodd"/></g><g fill="#ffffff" fill-opacity="1"><g transform="translate(85.190325, 253.92451)"><g><path d="M 10.671875 0.34375 L 9.078125 0.265625 L 6.8125 -0.40625 L 6.3125 -0.609375 L 4.5 -1.5625 L 4.15625 -1.96875 L 3.40625 -2.6875 L 2.15625 -4.390625 L 1.890625 -4.875 L 1.734375 -5.421875 L 1.328125 -6.328125 L 1.03125 -8.015625 L 1.140625 -11.09375 L 1.359375 -12.234375 L 1.859375 -13.703125 L 2.109375 -14.15625 L 3 -15.484375 L 3.71875 -16.28125 L 4.578125 -16.875 L 4.953125 -17.1875 L 6.3125 -18.046875 L 7.3125 -18.3125 L 7.796875 -18.515625 L 8.328125 -18.6875 L 8.859375 -18.78125 L 10.71875 -18.890625 L 11.96875 -18.859375 L 15.453125 -17.78125 L 16.8125 -16.921875 L 17.96875 -15.890625 L 18.3125 -15.40625 L 18.625 -15.09375 L 18.96875 -14.640625 L 19.15625 -14.15625 L 19.640625 -13.28125 L 19.765625 -12.671875 L 19.984375 -12.109375 L 20.203125 -11.125 L 20.328125 -9.28125 L 20.203125 -7.421875 L 20.09375 -6.84375 L 19.9375 -6.40625 L 19.84375 -5.875 L 19.671875 -5.375 L 18.625 -3.53125 L 18.28125 -3.0625 L 16.421875 -1.28125 L 14.046875 -0.21875 L 13.03125 0.109375 Z M 9.921875 -4.34375 L 11.46875 -4.390625 L 11.96875 -4.53125 L 12.453125 -4.578125 L 12.875 -4.8125 L 13.359375 -5.03125 L 14.1875 -5.671875 L 14.5 -6.140625 L 14.734375 -6.546875 L 15.03125 -6.9375 L 15.28125 -8.03125 L 15.4375 -9.359375 L 15.328125 -10.515625 L 15.140625 -10.984375 L 14.984375 -11.515625 L 14.765625 -12 L 14.15625 -12.90625 L 13.328125 -13.515625 L 11.921875 -14.125 L 10.640625 -14.203125 L 9.421875 -14.109375 L 8.859375 -13.96875 L 8.375 -13.734375 L 7.609375 -13.203125 L 7.21875 -12.859375 L 6.859375 -12.421875 L 6.625 -11.96875 L 6.3125 -11.609375 L 6.140625 -11.125 L 5.953125 -10.140625 L 5.9375 -9.34375 L 6.0625 -8.015625 L 6.578125 -6.515625 L 6.921875 -6.140625 L 7.1875 -5.78125 L 8.015625 -5.0625 L 8.921875 -4.578125 L 9.390625 -4.53125 Z M 9.921875 -4.34375 "/></g></g></g><g fill="#ffffff" fill-opacity="1"><g transform="translate(106.524811, 253.92451)"><g><path d="M 2 -1.09375 L 2 -5.03125 L 1.9375 -5.5625 L 1.96875 -7.71875 L 2.015625 -8.21875 L 1.96875 -8.734375 L 1.96875 -9.265625 L 1.9375 -9.84375 L 2.015625 -10.90625 L 1.96875 -11.4375 L 1.9375 -17.53125 L 2.265625 -18.28125 L 2.734375 -18.546875 L 4.3125 -18.6875 L 4.890625 -18.65625 L 5.421875 -18.546875 L 5.953125 -18.546875 L 6.4375 -18.6875 L 6.96875 -18.6875 L 7.5 -18.578125 L 9.09375 -18.578125 L 9.875 -18.625 L 10.71875 -18.59375 L 12.234375 -18.25 L 13.25 -17.90625 L 14.1875 -17.40625 L 15.703125 -15.8125 L 16 -15.375 L 16.203125 -14.921875 L 16.6875 -13.40625 L 16.765625 -12.875 L 16.8125 -11.203125 L 16.46875 -9.65625 L 15.4375 -7.796875 L 15.0625 -7.484375 L 14.6875 -7.078125 L 14.453125 -6.5 L 14.46875 -5.859375 L 14.796875 -5.453125 L 15.640625 -4.078125 L 15.890625 -3.59375 L 16.796875 -2.234375 L 17 -1.734375 L 17.328125 -1.359375 L 17.609375 -0.765625 L 17.453125 -0.1875 L 16.953125 0.046875 L 16.078125 0.078125 L 15.5625 0.03125 L 13.46875 0.046875 L 12.5625 -0.1875 L 11.96875 -0.671875 L 11.6875 -1.125 L 11.46875 -1.65625 L 11.171875 -2.046875 L 10.671875 -3 L 10.109375 -3.8125 L 9.90625 -4.28125 L 9.578125 -4.8125 L 9.046875 -5.265625 L 7.5 -5.484375 L 7 -5.1875 L 6.765625 -4.65625 L 6.703125 -2.953125 L 6.78125 -2.390625 L 6.734375 -1.921875 L 6.734375 -1.015625 L 6.5 -0.234375 L 5.640625 0.03125 L 4.84375 0.03125 L 4.421875 0.078125 L 3.5625 0 L 3.03125 0.078125 L 2.265625 -0.265625 Z M 7.5 -9.734375 L 8.09375 -9.796875 L 9.359375 -9.734375 L 9.875 -9.765625 L 10.640625 -9.953125 L 11.125 -10.171875 L 11.421875 -10.40625 L 11.703125 -10.796875 L 11.953125 -11.328125 L 12.03125 -12.140625 L 11.921875 -12.828125 L 11.765625 -13.25 L 11.09375 -14.078125 L 10.59375 -14.203125 L 9.90625 -14.265625 L 9.15625 -14.421875 L 8.09375 -14.3125 L 7.5625 -14.34375 L 7 -14.125 L 6.765625 -13.625 L 6.703125 -12.5 L 6.765625 -12.046875 L 6.765625 -10.453125 L 6.96875 -10.03125 Z M 7.5 -9.734375 "/></g></g></g><g fill="#ffffff" fill-opacity="1"><g transform="translate(124.986327, 253.92451)"><g><path d="M 9.234375 0.265625 L 8.703125 0.109375 L 7.1875 -0.15625 L 6.734375 -0.296875 L 4.890625 -1.359375 L 4.015625 -1.96875 L 2.953125 -3.09375 L 2.34375 -3.984375 L 1.859375 -4.890625 L 1.125 -7.390625 L 0.984375 -9.265625 L 1.015625 -10.109375 L 1.484375 -12.75 L 2.46875 -14.734375 L 2.765625 -15.140625 L 3.171875 -15.546875 L 3.515625 -15.96875 L 4.6875 -17 L 6.140625 -17.90625 L 8.203125 -18.65625 L 8.703125 -18.6875 L 9.15625 -18.84375 L 9.6875 -18.859375 L 12.15625 -18.765625 L 13.40625 -18.40625 L 13.96875 -18.3125 L 15.828125 -17.328125 L 16.234375 -17 L 16.65625 -16.609375 L 17.25 -16.125 L 18.3125 -14.578125 L 18.546875 -14.109375 L 18.921875 -13.015625 L 18.765625 -12.5625 L 18.09375 -12.265625 L 16.8125 -12.34375 L 16.015625 -12.234375 L 15.1875 -12.265625 L 14.5625 -12.453125 L 14 -12.90625 L 13.65625 -13.359375 L 13.328125 -13.703125 L 12.828125 -14.046875 L 12.3125 -14.265625 L 11.328125 -14.53125 L 9.71875 -14.46875 L 9.265625 -14.265625 L 8.75 -14.203125 L 8.296875 -13.96875 L 7.375 -13.3125 L 6.546875 -12.046875 L 6.125 -11.09375 L 5.9375 -10.0625 L 5.953125 -8.515625 L 6.09375 -7.65625 L 6.3125 -6.890625 L 6.8125 -5.9375 L 7.109375 -5.5625 L 7.90625 -4.8125 L 9.34375 -4.234375 L 10.703125 -4.078125 L 11.390625 -4.09375 L 12.421875 -4.34375 L 13.3125 -4.6875 L 13.671875 -4.96875 L 14.078125 -5.421875 L 14.34375 -5.875 L 14.265625 -6.328125 L 13.859375 -6.515625 L 13.390625 -6.59375 L 12.046875 -6.5 L 11.28125 -6.546875 L 10.796875 -6.84375 L 10.5625 -7.265625 L 10.5625 -9.796875 L 10.796875 -10.296875 L 11.328125 -10.5625 L 12.34375 -10.640625 L 13.9375 -10.53125 L 17.53125 -10.609375 L 18.09375 -10.53125 L 18.65625 -10.515625 L 19.15625 -10.25 L 19.421875 -9.796875 L 19.484375 -8.78125 L 19.421875 -8.28125 L 19.421875 -7.75 L 19.3125 -7.265625 L 19.296875 -6.8125 L 19.078125 -5.796875 L 18.546875 -4.234375 L 18.234375 -3.859375 L 17.984375 -3.375 L 17.71875 -2.921875 L 17.40625 -2.546875 L 17 -2.234375 L 16.609375 -1.8125 L 15.78125 -1.171875 L 13.890625 -0.21875 L 11.890625 0.265625 Z M 9.234375 0.265625 "/></g></g></g><g fill="#ffffff" fill-opacity="1"><g transform="translate(145.36316, 253.92451)"><g><path d="M 15.703125 0.046875 L 15.140625 0 L 14.53125 -0.265625 L 14 -0.671875 L 13.84375 -1.140625 L 13.59375 -1.65625 L 13.09375 -2.078125 L 12.5 -2.375 L 11.921875 -2.28125 L 11.4375 -2.34375 L 8.828125 -2.3125 L 8.359375 -2.390625 L 7.234375 -2.28125 L 6.734375 -2.375 L 6.171875 -2.078125 L 5.671875 -1.5625 L 5.1875 -0.6875 L 4.6875 -0.21875 L 4.078125 -0.03125 L 2.578125 0.03125 L 2.046875 -0.03125 L 1.015625 0.03125 L 0.484375 -0.140625 L 0.34375 -0.796875 L 0.5 -1.328125 L 1.03125 -2.390625 L 1.171875 -2.875 L 1.46875 -3.25 L 1.859375 -4.3125 L 2.34375 -5.15625 L 2.53125 -5.6875 L 2.796875 -6.09375 L 2.953125 -6.671875 L 5.671875 -12.375 L 5.828125 -12.859375 L 6.125 -13.359375 L 6.25 -13.890625 L 6.546875 -14.296875 L 7.609375 -16.734375 L 7.84375 -17.109375 L 8.03125 -17.640625 L 8.28125 -18.09375 L 8.75 -18.546875 L 9.609375 -18.84375 L 10.484375 -18.578125 L 10.9375 -18.09375 L 11.4375 -17.15625 L 11.609375 -16.6875 L 11.890625 -16.203125 L 12.046875 -15.671875 L 13.8125 -11.96875 L 14 -11.421875 L 14.5625 -10.4375 L 14.71875 -10 L 14.953125 -9.609375 L 15.109375 -9.015625 L 15.375 -8.515625 L 15.640625 -8.109375 L 16.65625 -5.6875 L 17.1875 -4.734375 L 17.5625 -3.75 L 18.28125 -2.375 L 18.6875 -1.390625 L 18.859375 -0.765625 L 18.78125 -0.140625 L 18.046875 0 L 17.21875 0.03125 L 16.703125 -0.03125 Z M 9.65625 -6.578125 L 10.71875 -6.59375 L 11.125 -6.8125 L 11.234375 -7.296875 L 9.984375 -10.21875 L 9.609375 -10.4375 L 9.3125 -10.1875 L 8.0625 -7.3125 L 8.09375 -6.8125 L 8.515625 -6.625 L 9.125 -6.671875 Z M 9.65625 -6.578125 "/></g></g></g><g fill="#ffffff" fill-opacity="1"><g transform="translate(164.675934, 253.92451)"><g><path d="M 15.703125 -0.453125 L 15.296875 -0.796875 L 14.609375 -1.5625 L 10.484375 -5.671875 L 10.03125 -5.953125 L 9.6875 -6.359375 L 7.796875 -8.171875 L 7.453125 -8.625 L 7.109375 -8.75 L 6.921875 -8.296875 L 6.859375 -7.765625 L 6.84375 -1.03125 L 6.578125 -0.21875 L 6.046875 0.046875 L 5.484375 0.078125 L 4.4375 0 L 3.859375 0.046875 L 2.765625 0 L 2.203125 -0.1875 L 1.96875 -0.6875 L 1.921875 -2.921875 L 1.96875 -3.4375 L 1.921875 -7.796875 L 2 -8.25 L 1.9375 -9.34375 L 1.96875 -9.796875 L 1.96875 -17.859375 L 2.203125 -18.359375 L 2.828125 -18.625 L 3.625 -18.4375 L 4.234375 -18.125 L 4.625 -17.796875 L 9.875 -12.5 L 10.609375 -11.921875 L 12.5 -10.03125 L 12.90625 -9.84375 L 13.0625 -10.296875 L 13.125 -15.0625 L 13.0625 -15.640625 L 13.140625 -16.765625 L 13.0625 -17.1875 L 13.09375 -17.75 L 13.390625 -18.3125 L 13.890625 -18.59375 L 17.1875 -18.625 L 17.71875 -18.328125 L 17.984375 -17.796875 L 18.0625 -14.109375 L 17.984375 -13.46875 L 17.984375 -10.828125 L 18.0625 -10.375 L 18.015625 -0.671875 L 17.75 -0.140625 L 17.15625 0.046875 L 16.421875 -0.03125 Z M 15.703125 -0.453125 "/></g></g></g><g fill="#ffffff" fill-opacity="1"><g transform="translate(184.733545, 253.92451)"><g><path d="M 8.921875 0.109375 L 8.375 -0.03125 L 7.078125 -0.03125 L 6.28125 0.078125 L 5.21875 -0.03125 L 4.6875 0.03125 L 3.859375 0.046875 L 3.09375 -0.046875 L 2.578125 0 L 2.078125 0 L 1.546875 -0.234375 L 1.28125 -0.953125 L 1.359375 -3.40625 L 1.65625 -3.890625 L 3.40625 -4.421875 L 3.703125 -5.21875 L 3.625 -13.390625 L 3.375 -14.109375 L 2.875 -14.421875 L 2.34375 -14.421875 L 1.75 -14.71875 L 1.46875 -15.25 L 1.515625 -15.75 L 1.4375 -17.71875 L 1.703125 -18.359375 L 2.234375 -18.625 L 2.84375 -18.625 L 3.359375 -18.546875 L 5.53125 -18.546875 L 6.0625 -18.65625 L 6.546875 -18.59375 L 9.765625 -18.59375 L 10.25 -18.3125 L 10.5625 -17.796875 L 10.53125 -15.171875 L 10.265625 -14.734375 L 9.71875 -14.53125 L 9.1875 -14.453125 L 8.59375 -14.203125 L 8.40625 -13.59375 L 8.296875 -10.90625 L 8.40625 -9 L 8.359375 -8.40625 L 8.375 -5.484375 L 8.296875 -4.96875 L 8.625 -4.359375 L 9.265625 -4.15625 L 9.8125 -4.15625 L 10.40625 -3.859375 L 10.71875 -3.359375 L 10.71875 -0.71875 L 10.453125 -0.21875 L 9.984375 0.046875 Z M 8.921875 0.109375 "/></g></g></g><g fill="#ffffff" fill-opacity="1"><g transform="translate(196.810678, 253.92451)"><g><path d="M 0.671875 -0.71875 L 0.875 -1.359375 L 1.140625 -1.890625 L 1.484375 -2.375 L 2.1875 -3.78125 L 2.734375 -4.65625 L 3.21875 -5.671875 L 3.53125 -6.09375 L 4.015625 -7.046875 L 4.34375 -7.53125 L 7.609375 -13.59375 L 7.65625 -14.109375 L 7.3125 -14.34375 L 4.125 -14.375 L 3.625 -14.296875 L 3.09375 -14.375 L 2.3125 -14.375 L 1.515625 -14.578125 L 1.21875 -15.09375 L 1.25 -17.265625 L 1.203125 -17.828125 L 1.546875 -18.390625 L 1.96875 -18.65625 L 2.46875 -18.59375 L 3.59375 -18.59375 L 4.078125 -18.65625 L 4.625 -18.59375 L 6.703125 -18.59375 L 7.265625 -18.6875 L 7.796875 -18.59375 L 11.734375 -18.625 L 12.421875 -18.546875 L 14 -18.59375 L 14.5 -18.546875 L 15.03125 -18.359375 L 15.21875 -17.78125 L 13.140625 -13.921875 L 12.828125 -13.46875 L 12.34375 -12.421875 L 12.109375 -12.078125 L 11.3125 -10.5625 L 10.984375 -10.109375 L 9.84375 -7.953125 L 9.453125 -7.34375 L 9.1875 -6.8125 L 8.921875 -6.390625 L 8.703125 -5.828125 L 8.4375 -5.34375 L 8.109375 -4.953125 L 8.171875 -4.5 L 8.625 -4.234375 L 9.15625 -4.25 L 9.71875 -4.234375 L 10.1875 -4.28125 L 12.9375 -4.25 L 13.4375 -4.203125 L 14 -4.234375 L 14.609375 -4.203125 L 15.171875 -3.9375 L 15.375 -3.4375 L 15.4375 -2.953125 L 15.4375 -1.84375 L 15.375 -1.28125 L 15.40625 -0.75 L 15.140625 -0.296875 L 14.609375 -0.03125 L 14.125 0.03125 L 11.4375 0.03125 L 10.859375 0.078125 L 10.34375 -0.03125 L 9.8125 0.046875 L 9.265625 0.046875 L 8.703125 0.109375 L 8.25 0.03125 L 7.75 0 L 7.15625 0.109375 L 1.296875 0.078125 L 0.765625 -0.15625 Z M 0.671875 -0.71875 "/></g></g></g><g fill="#ffffff" fill-opacity="1"><g transform="translate(213.223873, 253.92451)"><g><path d="M 15.703125 0.046875 L 15.140625 0 L 14.53125 -0.265625 L 14 -0.671875 L 13.84375 -1.140625 L 13.59375 -1.65625 L 13.09375 -2.078125 L 12.5 -2.375 L 11.921875 -2.28125 L 11.4375 -2.34375 L 8.828125 -2.3125 L 8.359375 -2.390625 L 7.234375 -2.28125 L 6.734375 -2.375 L 6.171875 -2.078125 L 5.671875 -1.5625 L 5.1875 -0.6875 L 4.6875 -0.21875 L 4.078125 -0.03125 L 2.578125 0.03125 L 2.046875 -0.03125 L 1.015625 0.03125 L 0.484375 -0.140625 L 0.34375 -0.796875 L 0.5 -1.328125 L 1.03125 -2.390625 L 1.171875 -2.875 L 1.46875 -3.25 L 1.859375 -4.3125 L 2.34375 -5.15625 L 2.53125 -5.6875 L 2.796875 -6.09375 L 2.953125 -6.671875 L 5.671875 -12.375 L 5.828125 -12.859375 L 6.125 -13.359375 L 6.25 -13.890625 L 6.546875 -14.296875 L 7.609375 -16.734375 L 7.84375 -17.109375 L 8.03125 -17.640625 L 8.28125 -18.09375 L 8.75 -18.546875 L 9.609375 -18.84375 L 10.484375 -18.578125 L 10.9375 -18.09375 L 11.4375 -17.15625 L 11.609375 -16.6875 L 11.890625 -16.203125 L 12.046875 -15.671875 L 13.8125 -11.96875 L 14 -11.421875 L 14.5625 -10.4375 L 14.71875 -10 L 14.953125 -9.609375 L 15.109375 -9.015625 L 15.375 -8.515625 L 15.640625 -8.109375 L 16.65625 -5.6875 L 17.1875 -4.734375 L 17.5625 -3.75 L 18.28125 -2.375 L 18.6875 -1.390625 L 18.859375 -0.765625 L 18.78125 -0.140625 L 18.046875 0 L 17.21875 0.03125 L 16.703125 -0.03125 Z M 9.65625 -6.578125 L 10.71875 -6.59375 L 11.125 -6.8125 L 11.234375 -7.296875 L 9.984375 -10.21875 L 9.609375 -10.4375 L 9.3125 -10.1875 L 8.0625 -7.3125 L 8.09375 -6.8125 L 8.515625 -6.625 L 9.125 -6.671875 Z M 9.65625 -6.578125 "/></g></g></g><g fill="#8c52ff" fill-opacity="1"><g transform="translate(233.147845, 253.17451)"><g><path d="M 3.671875 0 C 3.441406 0 3.328125 -0.113281 3.328125 -0.34375 L 3.328125 -18.28125 C 3.328125 -18.507812 3.441406 -18.625 3.671875 -18.625 L 5.34375 -18.625 C 5.570312 -18.625 5.6875 -18.507812 5.6875 -18.28125 L 5.6875 -2.234375 L 20.9375 -2.234375 C 21.164062 -2.234375 21.28125 -2.117188 21.28125 -1.890625 L 21.28125 -0.34375 C 21.28125 -0.113281 21.164062 0 20.9375 0 Z M 3.671875 0 "/></g></g></g><g fill="#8c52ff" fill-opacity="1"><g transform="translate(255.094179, 253.17451)"><g><path d="M 23.421875 -0.578125 C 23.472656 -0.472656 23.5 -0.378906 23.5 -0.296875 C 23.5 -0.0976562 23.359375 0 23.078125 0 L 21.578125 0 C 21.441406 0 21.328125 -0.0234375 21.234375 -0.078125 C 21.140625 -0.128906 21.050781 -0.226562 20.96875 -0.375 L 18.5 -4.65625 L 4.734375 -4.65625 L 2.265625 -0.375 C 2.140625 -0.125 1.9375 0 1.65625 0 L 0.140625 0 C -0.128906 0 -0.265625 -0.113281 -0.265625 -0.34375 C -0.265625 -0.414062 -0.238281 -0.503906 -0.1875 -0.609375 L 10.078125 -18.25 C 10.148438 -18.394531 10.234375 -18.492188 10.328125 -18.546875 C 10.429688 -18.597656 10.554688 -18.625 10.703125 -18.625 L 12.53125 -18.625 C 12.675781 -18.625 12.796875 -18.597656 12.890625 -18.546875 C 12.984375 -18.492188 13.066406 -18.394531 13.140625 -18.25 Z M 11.6875 -16.421875 L 11.546875 -16.421875 L 8.890625 -11.78125 L 5.984375 -6.8125 L 17.25 -6.8125 Z M 11.6875 -16.421875 "/></g></g></g><g fill="#8c52ff" fill-opacity="1"><g transform="translate(278.343983, 253.17451)"><g><path d="M 20.515625 -10.34375 C 21.804688 -10.332031 22.765625 -10.015625 23.390625 -9.390625 C 24.023438 -8.773438 24.34375 -7.816406 24.34375 -6.515625 L 24.34375 -4.28125 C 24.34375 -2.769531 24.003906 -1.675781 23.328125 -1 C 22.660156 -0.332031 21.570312 0 20.0625 0 L 3.671875 0 C 3.441406 0 3.328125 -0.113281 3.328125 -0.34375 L 3.328125 -18.28125 C 3.328125 -18.507812 3.441406 -18.625 3.671875 -18.625 L 17.671875 -18.625 C 19.179688 -18.625 20.269531 -18.3125 20.9375 -17.6875 C 21.613281 -17.070312 21.953125 -16.085938 21.953125 -14.734375 L 21.953125 -13.46875 C 21.953125 -11.863281 21.472656 -10.867188 20.515625 -10.484375 Z M 5.6875 -16.578125 L 5.6875 -10.53125 L 17.265625 -10.53125 C 18.085938 -10.53125 18.675781 -10.71875 19.03125 -11.09375 C 19.394531 -11.46875 19.578125 -12.0625 19.578125 -12.875 L 19.578125 -14.234375 C 19.578125 -15.046875 19.394531 -15.640625 19.03125 -16.015625 C 18.675781 -16.390625 18.085938 -16.578125 17.265625 -16.578125 Z M 21.984375 -6.140625 C 21.984375 -6.960938 21.800781 -7.554688 21.4375 -7.921875 C 21.070312 -8.296875 20.484375 -8.484375 19.671875 -8.484375 L 5.6875 -8.484375 L 5.6875 -2.078125 L 19.671875 -2.078125 C 20.484375 -2.078125 21.070312 -2.257812 21.4375 -2.625 C 21.800781 -2.988281 21.984375 -3.578125 21.984375 -4.390625 Z M 21.984375 -6.140625 "/></g></g></g></svg>